<?xml version="1.0" encoding="UTF-8" standalone="no"?>
<!-- Created with Inkscape (http://www.inkscape.org/) -->

<svg
   width="210mm"
   height="297mm"
   viewBox="0 0 210 297"
   version="1.1"
   id="svg7406"
   inkscape:version="1.2.2 (b0a8486541, 2022-12-01)"
   sodipodi:docname="shr2025-logga3.png"
   xmlns:inkscape="http://www.inkscape.org/namespaces/inkscape"
   xmlns:sodipodi="http://sodipodi.sourceforge.net/DTD/sodipodi-0.dtd"
   xmlns="http://www.w3.org/2000/svg"
   xmlns:svg="http://www.w3.org/2000/svg">
  <sodipodi:namedview
     id="namedview7408"
     pagecolor="#ffffff"
     bordercolor="#000000"
     borderopacity="0.25"
     inkscape:showpageshadow="2"
     inkscape:pageopacity="0.0"
     inkscape:pagecheckerboard="0"
     inkscape:deskcolor="#d1d1d1"
     inkscape:document-units="mm"
     showgrid="false"
     inkscape:zoom="0.62030698"
     inkscape:cx="27.405785"
     inkscape:cy="627.9149"
     inkscape:window-width="1920"
     inkscape:window-height="1006"
     inkscape:window-x="0"
     inkscape:window-y="50"
     inkscape:window-maximized="1"
     inkscape:current-layer="layer1" />
  <defs
     id="defs7403" />
  <g
     inkscape:label="Layer 1"
     inkscape:groupmode="layer"
     id="layer1">
    <circle
       style="fill:#142733;fill-opacity:1;stroke-width:0.400477"
       id="circle4728"
       cx="106.34969"
       cy="134.01532"
       r="82.020836" />
    <path
       id="path1930"
       style="fill:#0074e8;stroke-width:0.335885"
       d="M 50.882459,93.325283 A 68.791664,68.791664 0 0 1 147.03973,78.548093 68.791664,68.791664 0 0 1 161.81692,174.70537 68.791664,68.791664 0 0 1 65.659644,189.48256 68.791664,68.791664 0 0 1 50.882459,93.325283 Z" />
    <g
       aria-label="STORA HÖGA RIDKLUBB"
       transform="matrix(0.99830884,-0.0091281,0.01962548,0.94389992,-2.0745866,2.6068873)"
       id="text4786"
       style="font-size:10.1747px;font-family:Prata;-inkscape-font-specification:Prata;fill:#f4faff;stroke-width:0.264583">
      <path
         d="m 53.263811,90.581267 q -0.596045,0.734924 -1.591691,1.10646 l -0.204969,0.947295 -0.141,0.173853 -2.03092,-1.647135 0.141,-0.173853 2.02103,0.512483 q 0.998197,-0.277764 1.683969,-1.123323 0.564,-0.695412 0.565807,-1.440667 3.13e-4,-0.759567 -0.663489,-1.297931 -0.482048,-0.390954 -0.995768,-0.322883 -0.521623,0.06166 -1.219528,0.582972 l -1.403712,1.03621 q -0.739346,0.540101 -1.455979,0.535307 -0.724535,-0.0112 -1.325118,-0.498293 -0.545266,-0.442227 -0.791049,-0.995274 -0.247276,-0.567358 -0.136764,-1.172049 0.102609,-0.611101 0.570472,-1.187977 0.583227,-0.71912 1.289656,-1.089412 l 0.222889,-0.775557 0.140999,-0.173854 1.612093,1.307454 -0.141,0.173853 -1.615207,-0.366753 q -0.765168,0.361954 -1.329168,1.057366 -0.55759,0.68751 -0.522436,1.37104 0.02725,0.67712 0.604128,1.144984 0.42673,0.34609 0.896023,0.268188 0.475702,-0.08581 1.060173,-0.515709 l 1.518639,-1.113304 q 0.731444,-0.54651 1.427356,-0.532321 0.694418,-1.22e-4 1.555781,0.698468 0.877168,0.711409 0.932793,1.660448 0.06203,0.941136 -0.67501,1.849914 z"
         id="path8241" />
      <path
         d="m 56.538264,86.534785 -0.151602,-0.150569 0.551348,-0.771712 -5.33496,-5.298595 -1.183043,1.191161 0.884478,1.968307 -0.207929,0.209356 -1.609873,-1.5989 4.66764,-4.699674 1.609873,1.5989 -0.215099,0.216575 -1.96714,-0.878214 -1.190213,1.198381 5.334961,5.298595 0.767923,-0.556614 0.151602,0.150569 z"
         id="path8243" />
      <path
         d="m 63.63266,80.331471 q -0.86742,0.691055 -1.887824,0.814518 -1.020405,0.123462 -2.004683,-0.328228 -0.990619,-0.459649 -1.770433,-1.438481 -0.779815,-0.978832 -1.000127,-2.039158 -0.226652,-1.068285 0.121717,-2.035294 0.348369,-0.967009 1.215789,-1.658064 0.867421,-0.691055 1.887825,-0.814517 1.020404,-0.123463 2.011023,0.336185 0.984278,0.451691 1.764093,1.430523 0.779814,0.978832 1.006466,2.047117 0.220312,1.060326 -0.128057,2.027335 -0.348369,0.967009 -1.215789,1.658064 z m -0.145819,-0.183034 q 0.572975,-0.456476 0.785662,-1.120257 0.220645,-0.670121 0.02678,-1.452314 -0.200203,-0.790151 -0.827858,-1.577992 l -0.976353,-1.225529 q -0.627655,-0.787841 -1.346745,-1.151597 -0.72543,-0.371715 -1.427911,-0.306401 -0.694524,0.05897 -1.267499,0.515451 -0.580932,0.462816 -0.793619,1.126597 -0.212687,0.663781 -0.01248,1.453932 0.193863,0.782193 0.821518,1.570034 l 0.976353,1.225529 q 0.627655,0.787841 1.353085,1.159555 0.719091,0.363757 1.413614,0.304783 0.694523,-0.05897 1.275456,-0.521791 z"
         id="path8245" />
      <path
         d="m 72.39289,74.228239 q -0.484461,0.299916 -0.871295,0.216295 -0.386833,-0.08362 -0.821462,-0.592386 l -0.882029,-1.057489 q -0.450695,-0.534718 -0.974301,-0.6653 -0.52031,-0.14459 -1.186444,0.267796 l -0.674786,0.417741 1.885191,3.045186 0.876236,-0.362954 0.112469,0.181673 -2.543422,1.574563 -0.112469,-0.181673 0.715566,-0.622487 -3.898918,-6.297997 -0.87088,0.371605 -0.117825,-0.190325 2.422307,-1.499583 q 1.410129,-0.872972 2.314797,-0.822729 0.904669,0.05024 1.461657,0.949956 0.921173,1.487989 -0.733652,2.835545 l 0.03213,0.05191 q 0.725046,-0.317224 1.358646,-0.182936 0.64225,0.128932 1.137026,0.696195 l 0.573051,0.67437 q 0.369125,0.441616 0.562749,0.561082 0.202276,0.114109 0.3926,-0.0037 0.129766,-0.08034 0.228634,-0.249241 0.09351,-0.177557 0.142944,-0.387658 l 0.24347,0.06467 q -0.07415,0.4408 -0.26735,0.727941 -0.193205,0.287141 -0.504644,0.479945 z m -4.56993,-2.220803 q 0.63153,-0.390963 0.741925,-0.985837 0.113691,-0.608881 -0.352252,-1.361527 L 68.100165,69.478399 Q 67.211126,68.042318 65.58472,69.049181 l -0.674786,0.417741 1.944104,3.140348 z"
         id="path8247" />
      <path
         d="m 73.006887,73.696025 -0.09234,-0.192686 0.723318,-0.797935 -0.685663,-8.234977 0.146809,-0.07035 5.952231,5.993203 0.910104,-0.266899 0.09234,0.192686 -2.697603,1.292743 -0.09234,-0.192686 0.69523,-0.479843 -1.822028,-1.800846 -2.440688,1.169625 0.18017,2.283023 1.00168,-0.02872 0.09234,0.192686 z m 0.670437,-3.615831 2.303055,-1.103668 -2.648836,-2.702133 z"
         id="path8249" />
      <path
         d="m 82.509292,69.355846 -0.06202,-0.204469 0.851466,-0.417766 -2.150108,-7.088256 -0.937117,0.135404 -0.06498,-0.214205 2.862564,-0.868313 0.06498,0.214205 -0.85442,0.40803 0.96873,3.19361 3.699914,-1.12231 -0.96873,-3.193609 -0.946854,0.138358 -0.06498,-0.214206 2.882038,-0.87422 0.06498,0.214206 -0.864157,0.410983 2.150109,7.088256 0.949806,-0.128622 0.06202,0.204469 -2.882038,0.87422 -0.06202,-0.204469 0.861204,-0.420719 -1.107542,-3.651231 -3.699914,1.122309 1.107542,3.651231 0.94007,-0.125668 0.06202,0.204469 z"
         id="path8251" />
      <path
         d="m 94.911713,66.387547 q -1.093529,0.184847 -2.046194,-0.201026 -0.952664,-0.385874 -1.595324,-1.257549 -0.644355,-0.881708 -0.852944,-2.115691 -0.208588,-1.233982 0.111861,-2.268459 0.318753,-1.044509 1.091658,-1.722067 0.772904,-0.677559 1.866434,-0.862406 1.093529,-0.184847 2.046193,0.201026 0.952665,0.385874 1.59702,1.267582 0.642659,0.871675 0.851248,2.105658 0.208589,1.233982 -0.110164,2.278491 -0.320449,1.034477 -1.093354,1.712036 -0.772905,0.677558 -1.866434,0.862405 z m -0.03901,-0.230744 q 0.722332,-0.122101 1.229735,-0.599995 0.517436,-0.479589 0.726404,-1.257883 0.207272,-0.788327 0.03938,-1.781532 l -0.26116,-1.544987 q -0.167888,-0.993205 -0.621058,-1.659574 -0.454865,-0.6764 -1.101185,-0.959272 -0.636288,-0.284567 -1.358619,-0.162466 -0.732364,0.123796 -1.239767,0.60169 -0.507404,0.477893 -0.714675,1.26622 -0.208968,0.778294 -0.04108,1.771499 l 0.26116,1.544987 q 0.167889,0.993205 0.622754,1.669606 0.453169,0.666369 1.089457,0.950936 0.636288,0.284567 1.368651,0.160771 z m -2.35286,-8.425059 q -0.25081,0.0424 -0.460222,-0.09763 -0.19938,-0.141721 -0.241776,-0.39253 -0.0424,-0.25081 0.09932,-0.450189 0.151753,-0.201076 0.402563,-0.243472 0.250809,-0.0424 0.450189,0.09933 0.19938,0.141721 0.241776,0.39253 0.0424,0.25081 -0.09932,0.45019 -0.141721,0.199379 -0.39253,0.241775 z m 1.866022,-0.315427 q -0.250809,0.0424 -0.460222,-0.09763 -0.199379,-0.141721 -0.241776,-0.39253 -0.0424,-0.25081 0.09933,-0.45019 0.151754,-0.201075 0.402563,-0.243471 0.25081,-0.0424 0.440157,0.101021 0.19938,0.141721 0.241776,0.39253 0.0424,0.25081 -0.09933,0.450189 -0.131689,0.197684 -0.382498,0.24008 z"
         id="path8253" />
      <path
         d="m 103.45163,65.48584 q -1.10795,0.0491 -1.96534,-0.452698 -0.85738,-0.501795 -1.35758,-1.447174 -0.490038,-0.94583 -0.545891,-2.206256 -0.05585,-1.260426 0.379098,-2.247245 0.434953,-0.986819 1.264913,-1.563386 0.84013,-0.577017 1.94809,-0.626114 1.04696,-0.04639 1.79208,0.450191 l 0.59663,-0.556042 0.21346,-0.0095 0.1117,2.520852 -0.21346,0.0095 -0.74519,-1.647451 q -0.75889,-0.577453 -1.74486,-0.533761 -0.71153,0.03153 -1.26454,0.422684 -0.54285,0.390704 -0.83704,1.106484 -0.28403,0.715329 -0.24124,1.680978 l 0.0824,1.860145 q 0.0428,0.965649 0.36865,1.653952 0.33602,0.687853 0.88125,1.040526 0.55495,0.342057 1.26648,0.310527 0.87417,-0.03874 1.32804,-0.598638 0.46403,-0.560351 0.42394,-1.465011 l -0.0419,-0.94532 -0.95162,-0.100416 -0.01,-0.223624 3.03925,-0.134678 0.01,0.223623 -0.93901,0.184197 0.0419,0.945319 q 0.0257,0.579389 -0.26691,1.101589 -0.29304,0.512035 -0.94995,0.85687 -0.65691,0.344834 -1.67338,0.389877 z"
         id="path8255" />
      <path
         d="m 107.20176,65.110826 0.0147,-0.213165 1.0227,-0.337594 3.46358,-7.502576 0.16241,0.01117 2.22367,8.148794 0.92339,0.216505 -0.0147,0.213165 -2.98431,-0.205303 0.0147,-0.213165 0.84143,-0.0747 -0.69731,-2.465074 -2.70009,-0.18575 -0.96885,2.075085 0.88563,0.468877 -0.0147,0.213164 z m 2.366,-2.815267 2.54783,0.175276 -0.97228,-3.656846 z"
         id="path8257" />
      <path
         d="m 123.35978,67.394239 q -0.55711,-0.11951 -0.77805,-0.447871 -0.22093,-0.328361 -0.1817,-0.996346 l 0.0969,-1.37363 q 0.0456,-0.69783 -0.24135,-1.15483 -0.27491,-0.464815 -1.04094,-0.629141 l -0.77597,-0.16646 -0.75121,3.501826 0.88324,0.345564 -0.0448,0.208916 -2.92482,-0.627428 0.0448,-0.208916 0.94726,0.04711 1.55363,-7.242415 -0.88537,-0.335615 0.047,-0.218864 2.78554,0.59755 q 1.62159,0.347859 2.23898,1.011016 0.61739,0.663157 0.39544,1.697788 -0.36706,1.71112 -2.49394,1.535831 l -0.0128,0.05969 q 0.74255,0.273759 1.10627,0.809656 0.37368,0.538032 0.33727,1.289872 l -0.0542,0.883303 q -0.0399,0.574182 0.0169,0.794491 0.0667,0.222442 0.28562,0.269393 0.14922,0.03201 0.33755,-0.02124 0.19046,-0.0632 0.3717,-0.180418 l 0.13071,0.21535 q -0.35893,0.266407 -0.69721,0.339527 -0.33827,0.07312 -0.69641,-0.0037 z m -1.75563,-4.768019 q 0.72624,0.15579 1.21807,-0.196574 0.50392,-0.360179 0.68959,-1.225687 l 0.0448,-0.208916 q 0.35426,-1.65143 -1.51603,-2.052642 l -0.77597,-0.16646 -0.77468,3.611259 z"
         id="path8259" />
      <path
         d="m 124.81001,67.710527 0.0618,-0.204546 0.94023,0.1245 2.1413,-7.090922 -0.85493,-0.406968 0.0647,-0.214286 2.86364,0.864757 -0.0647,0.214286 -0.93728,-0.13424 -2.1413,7.090921 0.85198,0.416708 -0.0618,0.204546 z"
         id="path8261" />
      <path
         d="m 128.56186,68.543821 0.92492,0.209895 2.78029,-6.865587 -0.81416,-0.483387 0.084,-0.207476 3.61198,1.46271 q 1.03738,0.4201 1.64804,1.21626 0.62391,0.790548 0.72905,1.832063 0.10896,1.032084 -0.34933,2.163774 -0.45829,1.13169 -1.25851,1.806573 -0.79639,0.665451 -1.79839,0.808547 -0.99818,0.133665 -2.02613,-0.282615 l -3.61198,-1.462711 z m 3.62344,1.434419 q 0.68844,0.278793 1.34641,0.172017 0.66741,-0.102958 1.22507,-0.612608 0.56148,-0.51908 0.92811,-1.424432 l 0.58814,-1.452336 q 0.36663,-0.905352 0.32073,-1.659423 -0.0459,-0.754071 -0.45361,-1.292405 -0.39827,-0.534514 -1.08672,-0.813308 l -1.70696,-0.691255 -2.86814,7.082495 z"
         id="path8263" />
      <path
         d="m 136.50806,72.083117 0.10299,-0.187206 0.89371,0.317506 3.57056,-6.489797 -0.75148,-0.576028 0.1079,-0.19612 2.62088,1.441955 -0.1079,0.19612 -0.8888,-0.32642 -1.76566,3.20924 4.52556,-1.365634 -0.76569,-0.909014 0.1079,-0.19612 2.05926,1.132965 -0.1079,0.19612 -0.93699,-0.02777 -3.14185,0.919173 0.53768,5.777146 0.53262,0.467231 -0.103,0.187206 -2.62979,-1.44686 0.103,-0.187206 0.87989,0.321516 -0.3983,-4.806258 -0.83405,0.249512 -1.63324,2.968547 0.74657,0.584943 -0.10299,0.187205 z"
         id="path8265" />
      <path
         d="m 143.06089,75.757391 0.12182,-0.175537 0.85604,0.408322 4.22323,-6.085279 -0.6878,-0.65073 0.12763,-0.183896 2.45751,1.705537 -0.12762,0.183896 -0.85024,-0.416681 -4.29285,6.185586 2.49931,1.734543 1.96169,-1.363264 0.22569,0.156631 -1.41548,2.039572 z"
         id="path8267" />
      <path
         d="m 151.35334,82.251201 q -1.12939,-0.980583 -1.21823,-1.933576 -0.0822,-0.960675 0.63825,-1.79043 l 3.6355,-4.187186 -0.61344,-0.721259 0.14675,-0.169024 2.25878,1.961167 -0.14676,0.169024 -0.80021,-0.506138 -3.6355,4.187187 q -0.65372,0.752925 -0.58471,1.527004 0.0757,0.766396 0.93618,1.513508 1.62877,1.414175 2.98291,-0.145456 l 3.46873,-3.995113 -0.45435,-0.920003 0.14675,-0.169024 1.63646,1.420846 -0.14675,0.169024 -0.99772,-0.340748 -3.46873,3.995113 q -0.80047,0.92195 -1.71547,0.935992 -0.90832,0.0064 -2.06844,-1.000908 z"
         id="path8269" />
      <path
         d="m 155.04013,84.987058 0.74442,0.587672 5.46542,-4.999556 -0.52671,-0.78683 0.16517,-0.151086 2.09459,2.28977 q 0.74169,0.810803 1.03106,1.42863 0.28938,0.617826 0.18073,1.11711 -0.10114,0.492417 -0.59663,0.945674 -1.08107,0.988923 -2.63126,-0.10273 l -0.0375,0.03434 q 0.64969,0.936339 0.68573,1.744536 0.0429,0.815705 -0.64027,1.44065 -0.82582,0.755427 -1.77998,0.511303 -0.9473,-0.236616 -1.88815,-1.265136 l -2.42424,-2.650126 z m 5.23509,-0.472723 q 0.5494,0.600595 1.18254,0.614377 0.63314,0.01378 1.25626,-0.556223 l 0.045,-0.04121 q 1.23122,-1.126274 0.0363,-2.432568 l -0.70735,-0.773267 -2.57505,2.35556 z m -2.78833,3.102247 q 0.58374,0.638132 1.27438,0.654473 0.69814,0.0095 1.38883,-0.622338 l 0.0826,-0.07554 q 0.68317,-0.624944 0.69824,-1.286833 0.0219,-0.65438 -0.56868,-1.30002 l -1.037,-1.133624 -2.87535,2.630261 z"
         id="path8271" />
      <path
         d="m 160.14164,90.632861 0.67478,0.66648 5.98536,-4.36369 -0.43636,-0.840309 0.18088,-0.13187 1.82819,2.507603 q 0.64737,0.887938 0.86655,1.534005 0.21919,0.646068 0.0559,1.130253 -0.15504,0.478191 -0.69766,0.8738 -1.18392,0.863148 -2.60371,-0.393429 l -0.0411,0.02997 q 0.54202,1.002514 0.48835,1.809733 -0.0477,0.81544 -0.79584,1.360902 -0.90438,0.659349 -1.82565,0.311081 -0.91527,-0.340045 -1.73646,-1.466411 l -2.11591,-2.902242 z m 5.25524,0.109809 q 0.47953,0.657732 1.10725,0.741529 0.62772,0.0838 1.31011,-0.413711 l 0.0493,-0.03597 q 1.34835,-0.983029 0.30538,-2.413596 l -0.61739,-0.84683 -2.82002,2.05597 z m -3.11467,2.774451 q 0.5095,0.69884 1.19408,0.791548 0.6928,0.08671 1.4492,-0.464742 l 0.0904,-0.06593 q 0.74817,-0.545462 0.83643,-1.201613 0.0942,-0.647929 -0.42125,-1.354991 l -0.9051,-1.241469 -3.1489,2.295733 z"
         id="path8273" />
    </g>
    <path
       style="fill:#142733;fill-opacity:1;stroke-width:0.138325"
       d="m 113.33241,185.53848 c -0.15728,-0.032 -0.89723,-0.20065 -1.64434,-0.37479 -0.74709,-0.17415 -1.90528,-0.38623 -2.57373,-0.4713 -0.66846,-0.085 -1.38102,-0.21345 -1.58347,-0.28527 -0.75534,-0.26795 -1.27257,-1.99201 -0.78035,-2.60107 0.38777,-0.47978 0.27212,-1.03617 -0.31717,-1.52603 -0.2949,-0.24514 -0.69705,-0.48455 -0.89366,-0.53202 -0.93648,-0.2261 -1.45345,-2.95096 -0.76629,-4.03902 0.34863,-0.55205 1.27202,-2.89353 1.4184,-3.59672 0.0536,-0.2576 0.2447,-0.70923 0.42462,-1.00363 0.17992,-0.29439 0.53212,-1.25787 0.78265,-2.14105 0.43011,-1.51626 0.45193,-1.70653 0.39147,-3.41231 -0.0581,-1.63965 -0.0267,-1.95304 0.33962,-3.39257 0.45497,-1.78757 0.86834,-4.11077 1.20593,-6.77748 0.12578,-0.99358 0.35254,-2.48994 0.50392,-3.32525 0.15138,-0.8353 0.27523,-1.75247 0.27523,-2.03814 0,-0.56424 0.0919,-0.50956 -1.3349,-0.79428 -0.3803,-0.0759 -0.93778,-0.25558 -1.23885,-0.39932 -0.30106,-0.14375 -0.85855,-0.32239 -1.23884,-0.397 -0.3803,-0.0746 -1.0635,-0.23667 -1.51821,-0.36016 -0.57931,-0.15733 -0.87183,-0.18231 -0.97742,-0.0835 -0.14251,0.13337 -0.29296,0.81631 -0.98115,4.4537 -0.89402,4.72529 -1.14673,6.24974 -1.28658,7.76134 -0.19342,2.09063 -0.26142,2.4087 -0.51501,2.4087 -0.25042,0 -0.25956,-0.474 -0.0478,-2.4756 0.26235,-2.47945 0.67837,-5.01229 1.33506,-8.12814 0.86182,-4.0892 0.84839,-3.97139 0.46774,-4.10304 -0.17258,-0.0597 -0.75719,-0.1498 -1.29913,-0.20025 -0.54194,-0.0504 -1.603605,-0.20201 -2.359268,-0.3368 -0.866941,-0.15463 -1.720854,-0.22141 -2.314118,-0.18095 -1.400236,0.0955 -2.828942,-0.1474 -3.226316,-0.54846 -0.33724,-0.34038 -1.415453,-0.60553 -1.625485,-0.39973 -0.137644,0.13486 -0.829054,3.19224 -1.342434,5.93621 -0.476267,2.54559 -0.644624,2.99746 -1.137264,3.05237 -0.524168,0.0584 -0.589764,-0.20595 -0.2508,-1.01076 0.156505,-0.37159 0.452564,-1.35954 0.65792,-2.19543 0.717167,-2.91922 1.358735,-5.76586 1.358735,-6.02865 0,-0.17845 -0.151612,-0.31444 -0.464705,-0.41679 -0.980696,-0.32059 -3.969242,-1.81902 -5.598578,-2.80708 -0.936213,-0.56773 -1.819011,-1.03224 -1.961765,-1.03224 -0.142754,0 -0.406253,0.18667 -0.585552,0.41483 -0.379628,0.48307 -1.306993,0.96787 -1.656745,0.86607 -0.312143,-0.0908 -0.441931,0.004 -0.934974,0.68459 -0.22336,0.30822 -0.882623,0.93382 -1.465036,1.3902 -0.857454,0.67192 -1.087649,0.93448 -1.209818,1.37993 -0.083,0.30257 -0.236967,0.85121 -0.342185,1.2192 -0.105217,0.36799 -0.233136,0.94006 -0.284279,1.27125 -0.0511,0.3312 -0.217043,0.99414 -0.368696,1.47321 -0.708351,2.23766 -1.151489,5.61006 -0.868686,6.61088 0.08507,0.30088 0.221151,1.23956 0.302522,2.08596 0.360044,3.74535 0.355037,3.71881 0.816221,4.32007 0.394742,0.51464 1.121944,1.79812 2.442564,4.31107 0.270756,0.5152 0.898057,1.39264 1.394021,1.94988 0.846707,0.95133 0.924629,1.09765 1.276601,2.39712 0.206171,0.76118 0.467585,1.55178 0.580917,1.75688 0.113332,0.2051 0.206058,0.47519 0.206058,0.60019 0,0.12501 0.286076,0.5525 0.635735,0.94998 0.487767,0.55451 0.654792,0.8691 0.717611,1.35171 0.151302,1.1624 0.532262,2.76353 0.850083,3.57284 0.435055,1.10781 0.332036,1.56466 -0.39053,1.73198 -0.414863,0.0961 -0.77182,0.0676 -1.500354,-0.11965 -0.525789,-0.13515 -1.220037,-0.28638 -1.542762,-0.33606 -0.322725,-0.0497 -0.889695,-0.26682 -1.259939,-0.48251 -0.370233,-0.2157 -0.846139,-0.47976 -1.057555,-0.58681 -0.252401,-0.1278 -0.55006,-0.52682 -0.86688,-1.16208 l -0.482492,-0.96746 0.306073,-0.36414 c 0.225622,-0.26844 0.284063,-0.47388 0.22237,-0.78166 -0.067,-0.33409 0.0041,-0.52078 0.355151,-0.93432 0.241364,-0.28425 0.438844,-0.57068 0.438844,-0.63652 0,-0.26892 -0.411188,-1.0093 -0.800499,-1.44136 -0.466016,-0.51717 -0.718076,-1.24084 -0.911643,-2.61734 -0.07247,-0.51519 -0.286963,-1.35823 -0.47671,-1.87343 -0.775258,-2.10493 -3.092122,-5.91205 -3.942876,-6.479 -0.227346,-0.15149 -0.513907,-0.54704 -0.658602,-0.90908 -0.140875,-0.35249 -0.302934,-0.7011 -0.360117,-0.7747 -0.05719,-0.0736 -0.215566,-0.45389 -0.35195,-0.84507 -0.228368,-0.65497 -0.665694,-1.17197 -1.621222,-1.91653 -0.20771,-0.16185 -0.307838,-0.46773 -0.383293,-1.17089 -0.05616,-0.5235 -0.158219,-0.95182 -0.226767,-0.95182 -0.06855,0 -0.418548,0.4667 -0.777777,1.03709 -0.359229,0.57039 -0.99068,1.4887 -1.403229,2.04069 -0.651861,0.8722 -0.79158,1.17887 -1.066888,2.34178 -0.534596,2.2581 -0.92465,5.90796 -0.850909,7.96207 0.08445,2.35242 0.298309,2.89195 1.671693,4.21751 0.554355,0.53504 1.00792,1.06442 1.00792,1.17639 0,0.1893 1.348773,2.17098 1.800666,2.64562 0.323468,0.33975 0.246722,0.86744 -0.162669,1.11848 -0.574505,0.35229 -2.668567,1.14586 -3.023687,1.14586 -0.536742,0 -1.774413,-0.59557 -2.832381,-1.36295 -0.989585,-0.71778 -1.001385,-0.73383 -1.044063,-1.4196 -0.02994,-0.48023 0.04708,-0.88457 0.250223,-1.31433 0.367766,-0.77806 0.367653,-0.7797 -0.06617,-0.96469 -0.197758,-0.0843 -0.434178,-0.30658 -0.525376,-0.49389 -0.09508,-0.19532 -0.424381,-0.44762 -0.772089,-0.59157 -0.333451,-0.13804 -0.675233,-0.37156 -0.759504,-0.51893 -0.09302,-0.16275 -0.1324,-0.86387 -0.100138,-1.78566 0.02922,-0.83473 -0.0062,-1.62308 -0.07856,-1.75187 -0.150125,-0.26721 -0.557472,-0.30791 -0.800984,-0.08 -0.187166,0.17515 -0.280212,2e-5 -0.672115,-1.26505 -0.201836,-0.65152 -0.287914,-0.76985 -0.535421,-0.73599 -0.325316,0.0445 -0.406201,-0.0621 -0.759638,-1.00202 -0.132565,-0.35251 -0.386896,-0.80413 -0.565194,-1.00362 -0.178298,-0.1995 -0.428232,-0.69948 -0.555408,-1.11107 -0.244492,-0.7913 -0.70739,-1.45961 -1.010975,-1.45961 -0.100035,0 -0.292374,-0.1142 -0.427354,-0.25379 -0.199885,-0.20671 -0.22781,-0.3994 -0.150507,-1.03881 0.0574,-0.47484 0.02798,-1.01776 -0.07454,-1.374 -0.31458,-1.09334 -0.162338,-9.82957 0.215876,-12.38773 0.122902,-0.8313 0.191594,-2.40257 0.181353,-4.1483 l -0.01652,-2.81015 0.512502,-1.56958 c 0.281875,-0.86327 0.555614,-1.91707 0.608306,-2.34178 0.05275,-0.42471 0.225735,-1.52493 0.384532,-2.44491 0.158786,-0.91998 0.27378,-1.88346 0.255549,-2.14106 -0.06999,-0.9889 0.01931,-1.25637 1.059816,-3.17571 1.152832,-2.12643 2.718234,-4.47037 3.585609,-5.36889 0.606984,-0.62877 2.803548,-2.09356 3.956575,-2.63848 0.420148,-0.19855 1.278645,-0.70773 1.907783,-1.13149 1.206359,-0.81258 2.198422,-1.31864 3.145681,-1.60467 0.644365,-0.19456 4.243477,-1.6338 5.625636,-2.24961 1.313188,-0.58509 3.385229,-0.91188 4.515266,-0.71213 1.319092,0.23316 5.641328,-0.007 7.303338,-0.40677 l 1.286873,-0.30909 0.0021,-1.33816 c 0.0021,-1.05403 0.05606,-1.41271 0.254817,-1.68923 0.138779,-0.19309 0.291929,-0.66409 0.340347,-1.04668 0.0989,-0.78174 0.429522,-1.27086 0.775082,-1.14675 0.124502,0.0447 0.37649,0.33443 0.55997,0.64381 0.341958,0.57663 1.232643,1.41681 1.512515,1.42676 0.518428,0.0184 0.830953,-1.00981 0.407006,-1.33909 -0.264386,-0.20535 -1.48461,-1.69083 -1.579999,-1.92344 -0.03655,-0.0891 0.128961,-0.3921 0.367756,-0.67333 0.475916,-0.56044 0.566257,-1.00977 0.203033,-1.00977 -0.173931,0 -0.206471,-0.0746 -0.13144,-0.30109 0.240519,-0.72627 0.236183,-0.95654 -0.03654,-1.9383 -0.212469,-0.7649 -0.310099,-1.66414 -0.369945,-3.40762 -0.07319,-2.132324 -0.05441,-2.424684 0.188199,-2.931867 0.1621,-0.33884 0.24122,-0.72817 0.198532,-0.97691 -0.13147,-0.766 0.468122,-1.92608 1.474152,-2.85216 0.497606,-0.45806 1.166428,-0.99491 1.486283,-1.193 0.394368,-0.24424 0.697168,-0.58889 0.940742,-1.07075 0.197552,-0.39082 0.541832,-0.83229 0.765069,-0.98104 0.223226,-0.14876 0.524457,-0.5388 0.66939,-0.86676 0.169843,-0.3843 0.374879,-0.62242 0.576787,-0.66985 0.46838,-0.11002 0.529485,-0.52407 0.199255,-1.3501 -0.197985,-0.49523 -0.295894,-1.05708 -0.295894,-1.69796 0,-0.81969 0.04852,-1.00715 0.336465,-1.2997 0.185061,-0.18803 0.419478,-0.63077 0.520948,-0.9839 0.272862,-0.94958 0.853655,-1.61242 1.787578,-2.04004 0.89796,-0.41115 1.61119,-0.46075 3.00294,-0.20881 0.98741,0.17875 1.38887,0.41652 2.03631,1.20606 0.7196,0.8775 0.9501,1.81927 0.85002,3.47308 -0.0676,1.1172 -0.13892,1.44823 -0.36101,1.67544 -0.33413,0.34185 -0.77683,1.15003 -1.17361,2.14252 -0.2637,0.65962 -0.36553,0.76472 -1.00136,1.03366 -0.3893,0.16465 -0.70781,0.3677 -0.70781,0.45121 0,0.0835 0.19303,0.32491 0.42896,0.53645 0.51067,0.45788 0.51627,0.51723 0.12662,1.3416 l -0.30234,0.63965 0.68421,1.61151 c 0.51496,1.21289 0.90331,1.88026 1.57001,2.698013 0.4872,0.59759 0.96243,1.220484 1.05606,1.384224 0.11532,0.20164 0.1561,0.91128 0.12642,2.19927 l -0.0438,1.90156 h 0.92941 c 0.6203,0 1.0483,0.0729 1.28687,0.21927 0.19661,0.1206 0.59098,0.28846 0.87637,0.37303 0.5729,0.16977 0.96857,0.51714 1.20635,1.05907 0.13778,0.31402 0.10856,0.39761 -0.24836,0.71065 -0.29557,0.25924 -0.4045,0.4816 -0.4045,0.8257 0,0.87734 1.96524,2.292 6.22478,4.48087 1.02505,0.52674 2.0588,0.99423 2.29721,1.03885 0.49416,0.0925 0.5767,0.0386 2.43333,-1.58764 1.13838,-0.99716 1.55261,-1.23236 3.10209,-1.76147 0.37855,-0.12927 0.97885,-0.4426 1.33399,-0.69631 0.35515,-0.2537 0.88189,-0.55998 1.17055,-0.68061 0.28865,-0.12063 1.36128,-0.59499 2.38363,-1.05413 1.02234,-0.45913 2.34139,-1.04733 2.9312,-1.30709 0.58982,-0.25977 1.52454,-0.70046 2.07716,-0.97934 2.11594,-1.06777 2.27345,-1.10781 4.06507,-1.03362 1.34534,0.0557 1.65978,0.0313 1.86797,-0.14503 0.18566,-0.15725 0.61474,-0.22112 1.66076,-0.24725 0.77574,-0.0194 1.53911,-0.0984 1.69639,-0.17567 0.15729,-0.0773 0.89217,-0.17548 1.63308,-0.21829 1.21804,-0.0703 1.38773,-0.0508 1.77116,0.20476 0.34628,0.23077 0.66591,0.28851 1.74289,0.31488 l 1.31886,0.0323 0.40967,-0.80217 c 0.66854,-1.30906 1.84353,-2.08236 2.33018,-1.53359 0.12091,0.13635 0.1074,0.32473 -0.054,0.75282 -0.3594,0.9533 -0.18841,2.5937 0.2882,2.76487 0.29745,0.10682 1.23392,-0.21026 1.64133,-0.55573 0.88326,-0.74899 2.10155,-0.96177 2.73663,-0.47797 l 0.33756,0.25715 -0.37575,0.37847 c -0.45891,0.46226 -0.65394,0.8069 -0.91874,1.62351 -0.30301,0.93444 -0.25516,1.23735 0.29838,1.88906 0.27636,0.32537 0.54639,0.74689 0.60006,0.93671 0.0537,0.18983 0.10045,1.35031 0.10383,2.57886 0.006,2.14786 -0.006,2.24449 -0.31548,2.51426 -0.17694,0.15431 -0.32171,0.42764 -0.32171,0.6074 0,0.60108 -0.30577,2.26282 -0.57814,3.14195 -0.43569,1.40634 -0.59374,3.21473 -0.41517,4.75048 0.33802,2.90701 0.33194,3.41369 -0.0694,5.77695 -0.69464,4.09071 -0.67123,4.03778 -1.98351,4.48558 -0.51259,0.17491 -1.16326,0.53993 -1.58016,0.88645 -0.69796,0.58015 -0.72175,0.5882 -1.5659,0.53106 -0.72589,-0.0491 -0.91118,-0.11678 -1.20978,-0.44166 -0.19393,-0.211 -0.65071,-0.52429 -1.01507,-0.69619 -0.36436,-0.17191 -0.9374,-0.46672 -1.2734,-0.65514 -0.44609,-0.25015 -0.92836,-0.37224 -1.78733,-0.45249 -1.21755,-0.11374 -3.02952,-0.72081 -3.60715,-1.2085 -0.50784,-0.42876 -6.21148,-3.00192 -6.35301,-2.86611 -0.0725,0.0696 -0.60201,0.93945 -1.17666,1.93304 l -1.04481,1.80651 0.0136,1.40507 c 0.007,0.7728 0.11923,2.08566 0.24825,2.91748 0.20891,1.34678 0.21194,1.61418 0.0276,2.44168 -0.27749,1.24548 -1.07982,3.05282 -1.73293,3.90359 -0.29269,0.38129 -0.75465,1.10309 -1.02658,1.60404 -0.33253,0.61259 -0.77063,1.14474 -1.33803,1.62528 -0.46399,0.39296 -0.84362,0.7656 -0.84362,0.82808 0,0.19038 2.57913,4.89643 3.11004,5.6748 0.27349,0.40096 0.57955,0.94733 0.68014,1.21415 0.10056,0.26683 0.84929,1.41651 1.66376,2.55484 1.57027,2.19467 1.5657,2.18705 2.68671,4.47293 0.76934,1.56876 0.82284,1.87287 0.56234,3.19601 -0.14456,0.73421 -0.12061,1.0114 0.22099,2.55794 0.3628,1.64256 1.21297,4.73938 1.81046,6.59477 0.20773,0.64507 0.24207,0.97191 0.14474,1.37732 -0.1481,0.61693 0.0553,1.65481 0.62662,3.19646 0.29576,0.79815 0.36647,1.2228 0.3454,2.07416 -0.0207,0.83827 0.0598,1.33663 0.37103,2.29709 0.58723,1.81191 0.38013,2.17538 -1.09074,1.91432 -0.96139,-0.17062 -1.42513,-0.41742 -2.93745,-1.56326 -1.69249,-1.28234 -2.52819,-2.12427 -2.40491,-2.42284 0.0512,-0.12392 0.15384,-0.52398 0.22813,-0.88901 0.12625,-0.62028 0.24935,-0.79825 1.18947,-1.71979 0.26822,-0.26292 0.26576,-0.27132 -0.18002,-0.61425 -0.24857,-0.19121 -0.45138,-0.40897 -0.45066,-0.48388 7.1e-4,-0.0749 -0.17503,-0.376 -0.39053,-0.66908 -0.37695,-0.51266 -0.39556,-0.61916 -0.49046,-2.80775 -0.13864,-3.19678 -0.32491,-4.85766 -0.73536,-6.557 -0.19555,-0.80958 -0.3956,-1.69047 -0.44457,-1.95751 -0.12474,-0.68044 -1.85943,-3.35528 -2.78727,-4.29792 -0.42592,-0.4327 -1.48759,-1.33299 -2.35927,-2.00065 -0.87168,-0.66765 -2.4535,-2.01494 -3.51517,-2.99397 -1.60425,-1.47937 -2.21462,-1.9407 -3.61344,-2.73113 -1.6612,-0.93869 -1.68821,-0.94826 -2.07329,-0.73423 -0.22823,0.12686 -0.64126,0.65507 -0.99521,1.27277 -0.60634,1.05819 -2.44716,4.99078 -3.02811,6.46906 -0.53608,1.36414 -1.61811,4.93236 -1.74946,5.76924 -0.17908,1.14099 -0.34476,1.54345 -0.99051,2.40618 -0.82438,1.10136 -1.33199,2.10436 -1.83157,3.61901 -0.72571,2.2002 -0.89376,3.17496 -0.80626,4.67664 0.13269,2.2778 0.50131,3.21126 1.79082,4.53516 0.55035,0.56502 1.01313,1.17327 1.06686,1.40222 0.0522,0.22238 0.33558,0.66432 0.62976,0.98208 0.29418,0.31774 0.84318,1.01614 1.22001,1.55198 0.56,0.79628 0.6533,1.01017 0.51077,1.17089 -0.1663,0.18753 -0.73806,0.23286 -1.35474,0.10741 z M 62.804821,157.55974 c 0.09673,-0.23154 0.11964,-0.84972 0.06184,-1.66708 l -0.09188,-1.29908 1.163537,-1.17248 c 0.639947,-0.64487 1.311949,-1.44529 1.493334,-1.77869 0.181374,-0.33342 0.497007,-0.7522 0.701403,-0.93063 0.204386,-0.17842 0.371617,-0.42709 0.371617,-0.5526 0,-0.22701 0.600263,-1.37542 1.331357,-2.54715 0.508332,-0.8147 0.710054,-1.835 0.519853,-2.6293 -0.0957,-0.39977 -0.613312,-1.27288 -1.481606,-2.4993 -1.7389,-2.45614 -1.942449,-2.82738 -1.942449,-3.54279 0,-0.52113 -0.06576,-0.64401 -0.554097,-1.03518 -0.36023,-0.28858 -0.692907,-0.74955 -0.950851,-1.31756 -0.407326,-0.89694 -0.5086,-0.96461 -1.118691,-0.74753 -0.349504,0.12436 -0.354326,0.14741 -0.342866,1.63925 0.0062,0.83622 -0.104754,2.24399 -0.24853,3.14689 -0.222493,1.39718 -0.23738,1.84316 -0.102822,3.0797 0.100551,0.92378 0.109584,1.6385 0.02519,1.97926 -0.21762,0.87852 -0.169523,6.39862 0.06586,7.55564 0.440672,2.16641 0.510149,2.66453 0.510149,3.6576 0,0.8329 0.0416,1.02902 0.218023,1.02902 0.119909,0 0.287192,-0.16559 0.371731,-0.36799 z m 84.033119,-26.99047 c 0.0764,-0.60847 -0.0932,-0.99101 -0.72266,-1.63006 -0.43223,-0.43885 -0.61634,-0.75491 -0.67434,-1.1576 -0.0671,-0.46603 -0.18759,-0.63014 -0.75932,-1.03437 -0.37375,-0.26424 -0.92067,-0.5609 -1.21539,-0.65924 -0.2947,-0.0983 -1.49861,-0.59212 -2.67537,-1.0973 -1.17675,-0.50516 -2.24699,-0.91848 -2.3783,-0.91848 -0.25166,0 -1.70267,2.2742 -1.70125,2.66639 8.6e-4,0.23526 3.30277,2.02956 5.26499,2.86106 1.17635,0.49848 4.38868,1.44589 4.67174,1.37783 0.0787,-0.019 0.1641,-0.20261 0.1899,-0.40823 z m -3.40709,-5.87849 c 0,-0.24859 -0.0804,-0.51444 -0.17873,-0.59079 -0.0983,-0.0763 -0.69346,-0.26211 -1.32261,-0.41282 -0.62914,-0.1507 -1.52141,-0.39588 -1.98283,-0.54484 -0.87461,-0.28237 -1.13715,-0.25927 -1.06352,0.0935 0.0499,0.23922 3.72715,1.89412 4.22598,1.90187 0.27119,0.004 0.32171,-0.066 0.32171,-0.44698 z m -1.28685,-1.98156 c 0,-0.0872 -0.13605,-0.29416 -0.30231,-0.4598 -0.16629,-0.16564 -0.50408,-0.58701 -0.75068,-0.93637 -0.2466,-0.34937 -0.5127,-0.63584 -0.59135,-0.63661 -0.0787,-8.1e-4 -0.35472,0.29169 -0.61349,0.64991 -0.56597,0.78347 -0.51356,0.8629 0.82797,1.25491 1.08327,0.31654 1.42985,0.34756 1.42986,0.12796 z m -54.230751,-4.02944 c 0.133391,-0.27399 0.910207,-0.62823 2.380622,-1.08561 0.228017,-0.071 0.253661,-0.16813 0.171423,-0.6499 -0.05317,-0.31157 -0.14167,-0.60774 -0.196633,-0.65815 -0.05492,-0.0505 -1.129417,0.0618 -2.387683,0.24946 -1.258277,0.18762 -2.980102,0.3794 -3.826272,0.4262 -0.84617,0.0468 -1.541369,0.13895 -1.544869,0.2048 -0.0031,0.0659 0.527957,0.315 1.181036,0.55368 0.653068,0.23869 1.66998,0.61932 2.259796,0.84586 1.314694,0.50493 1.759547,0.5307 1.96258,0.11366 z m 0.229255,-2.3725 c 1.092986,-0.1479 1.629243,-0.35456 1.422369,-0.54816 -0.151601,-0.14189 -2.756286,0.40552 -2.756286,0.57927 0,0.13425 0.135001,0.1311 1.333917,-0.0311 z m 28.505196,-1.24796 c 0.1187,-0.1111 -0.48924,-0.67504 -2.97846,-2.76293 -1.04445,-0.87606 -1.9914,-1.52086 -3.04609,-2.07416 -0.84177,-0.44158 -1.78721,-1.00668 -2.10099,-1.25576 -0.32385,-0.25706 -0.62273,-0.4017 -0.69127,-0.33454 -0.0664,0.065 -0.048,0.6174 0.0408,1.22739 l 0.16155,1.10906 0.93375,0.24837 c 0.51356,0.1366 1.19112,0.31531 1.50569,0.39711 0.42601,0.11079 0.95525,0.49852 2.07425,1.51962 0.82627,0.75398 1.66273,1.55532 1.85881,1.78075 0.34576,0.3975 0.38322,0.40747 1.24281,0.33026 0.48747,-0.0438 0.93707,-0.1271 0.99912,-0.18517 z"
       id="path5566" />
    <g
       aria-label="SEDAN 1979"
       transform="matrix(-0.18760693,-1.0462485,1.079526,-0.18159594,-18.256814,276.20474)"
       id="text7288"
       style="font-size:9.87777px;font-family:Prata;-inkscape-font-specification:Prata;fill:#f4faff;stroke-width:0.264583">
      <path
         d="m 48.703983,96.110687 q 0.507897,-0.765459 1.43564,-1.216778 l 0.110285,-0.934446 0.120148,-0.181077 2.115299,1.403544 -0.120148,0.181077 -2.000585,-0.307952 q -0.938898,0.360937 -1.523253,1.241625 -0.480591,0.724305 -0.413269,1.444675 0.07009,0.734062 0.761473,1.192807 0.502075,0.333137 0.992217,0.219744 0.498373,-0.107931 1.124503,-0.676396 l 1.260491,-1.131468 q 0.664437,-0.590464 1.357423,-0.652247 0.701216,-0.05632 1.326752,0.358734 0.567921,0.376827 0.856695,0.888503 0.291545,0.525369 0.240789,1.119974 -0.04253,0.600067 -0.441197,1.200914 -0.496974,0.74899 -1.145338,1.17231 l -0.143519,0.77014 -0.120148,0.18108 -1.67907,-1.1141 0.120148,-0.18108 1.594898,0.20473 q 0.705901,-0.4207 1.186492,-1.145 0.47513,-0.716074 0.37781,-1.373368 -0.08909,-0.651832 -0.689933,-1.050504 -0.44446,-0.294908 -0.890757,-0.176131 -0.451758,0.127007 -0.976738,0.596625 l -1.36441,1.216622 q -0.656206,0.595926 -1.330039,0.646706 -0.671063,0.0645 -1.568213,-0.5308 -0.913611,-0.606199 -1.05532,-1.51818 -0.147171,-0.903749 0.480874,-1.850283 z"
         id="path8222" />
      <path
         d="m 46.980845,99.10983 0.183343,0.09703 -0.294099,0.872525 6.355906,3.36351 0.547287,-0.73854 0.192075,0.10164 -2.781363,5.25585 -1.999317,-1.05803 0.124746,-0.23573 2.136806,0.27027 1.36758,-2.58427 -3.14303,-1.66328 -0.600626,1.13499 0.99335,1.18503 -0.120125,0.227 -2.758882,-1.45998 0.120125,-0.227 1.560617,0.15533 0.596006,-1.12625 -3.204145,-1.69562 -1.450744,2.74143 1.541884,1.73235 -0.120125,0.227 -2.130276,-1.12733 z"
         id="path8224" />
      <path
         d="m 43.855446,105.49521 -0.195874,0.89968 6.688679,2.64051 0.462319,-0.7945 0.202131,0.0798 -1.38917,3.5189 q -0.398978,1.01066 -1.166666,1.61026 -0.762128,0.61242 -1.772313,0.72337 -1.000996,0.11457 -2.103526,-0.32067 -1.10253,-0.43525 -1.764515,-1.20633 -0.652798,-0.76745 -0.800257,-1.73895 -0.138271,-0.96787 0.25708,-1.96933 l 1.38917,-3.51891 z M 42.49384,109.025 q -0.264776,0.6707 -0.155509,1.30854 0.10564,0.64702 0.605153,1.18404 0.5087,0.54065 1.390724,0.88885 l 1.414913,0.55857 q 0.882023,0.3482 1.613669,0.2972 0.731645,-0.051 1.250772,-0.45137 0.515499,-0.3912 0.780276,-1.0619 l 0.6565,-1.66298 -6.899997,-2.72394 z"
         id="path8226" />
      <path
         d="m 40.949879,112.27899 0.200187,0.0544 0.127682,1.03773 6.487383,4.71926 -0.04141,0.15252 -8.180172,0.57342 -0.381089,0.83819 -0.200187,-0.0543 0.76088,-2.80262 0.200187,0.0543 -0.08829,0.81533 2.479233,-0.19692 0.688416,-2.5357 -1.792238,-1.31563 -0.614231,0.75442 -0.200186,-0.0543 z m 2.2323,2.78617 -0.649595,2.39271 3.666076,-0.23294 z"
         id="path8228" />
      <path
         d="m 38.924703,119.82186 0.204963,0.0319 0.249072,0.96848 6.61739,1.03038 0.521981,-0.84842 0.214724,0.0334 -0.28267,1.81539 -6.550142,3.28871 5.299768,0.82522 0.521981,-0.84843 0.214724,0.0334 -0.323703,2.07892 -0.214723,-0.0334 -0.236272,-0.98649 -7.21276,-1.12308 0.03799,-0.244 7.600219,-3.80499 -6.246503,-0.97263 -0.536301,0.87618 -0.204964,-0.0319 z"
         id="path8230" />
      <path
         d="m 37.643008,130.2581 0.197421,0.007 0.07323,0.69462 7.304585,0.26937 0.124192,-0.68733 0.197421,0.007 -0.06188,1.67808 -7.600717,-0.2803 -0.124192,0.68734 -0.197421,-0.007 z"
         id="path8232" />
      <path
         d="m 37.386193,136.03184 q -0.02098,-0.61206 0.139803,-1.11175 0.151246,-0.48948 0.447466,-0.78626 0.296558,-0.2869 0.671693,-0.29976 0.335647,-0.0115 0.569807,0.18803 0.244371,0.20906 0.255197,0.52497 0.0091,0.26654 -0.132855,0.44931 -0.14199,0.18277 -0.398661,0.19157 -0.123539,-0.14402 -0.244371,-0.20907 -0.120493,-0.0552 -0.288317,-0.0494 -0.365263,0.0125 -0.601913,0.31714 -0.236649,0.30462 -0.22041,0.77847 0.02605,0.76014 0.653677,1.19328 0.627963,0.44301 2.02025,0.40517 l 1.105661,-0.0379 q -0.365202,-0.27411 -0.57719,-0.69183 -0.201777,-0.4082 -0.218016,-0.88205 -0.02504,-0.73053 0.251838,-1.30338 0.276875,-0.57285 0.828751,-0.90804 0.551877,-0.33519 1.341635,-0.36226 0.809502,-0.0277 1.404128,0.30769 0.604836,0.34496 0.931505,0.93667 0.336879,0.60123 0.361577,1.32189 0.04973,1.45118 -1.045162,2.0916 -1.094895,0.64042 -3.108778,0.70944 -1.994139,0.0683 -3.047552,-0.67636 -1.053074,-0.73483 -1.099763,-2.09716 z m 3.421116,0.0409 q 0.01624,0.47385 0.287121,0.87968 0.281091,0.41536 0.742983,0.62685 l 1.372543,-0.0371 q 1.115872,-0.0284 1.695672,-0.41392 0.590011,-0.37603 0.564637,-1.11643 -0.02436,-0.71078 -0.541025,-1.07853 -0.516327,-0.35788 -1.404805,-0.32744 l -0.967453,0.0332 q -0.858862,0.0294 -1.321214,0.38132 -0.452141,0.36142 -0.428459,1.05246 z"
         id="path8234" />
      <path
         d="m 37.895801,140.9139 q 0.734041,-0.0162 1.405641,0.11423 0.672747,0.14019 1.233493,0.34318 0.561892,0.21281 1.398358,0.56261 0.97318,0.41337 1.647579,0.65282 0.68421,0.23829 1.474689,0.36472 l -0.384012,-3.28669 -1.198462,-0.12849 -0.0298,-0.25509 2.18786,-0.25562 0.503227,4.30704 q -1.024292,3.4e-4 -1.945754,-0.14062 -0.91165,-0.14211 -2.216753,-0.41726 -1.256048,-0.28088 -2.127308,-0.41776 -0.860303,-0.12822 -1.79171,-0.099 z"
         id="path8236" />
      <path
         d="m 38.656458,147.33003 q -0.120649,-0.60042 -0.04363,-1.11966 0.06928,-0.50761 0.313057,-0.84877 0.245723,-0.33149 0.613722,-0.40543 0.329263,-0.0662 0.592864,0.0925 0.275232,0.16635 0.337503,0.47624 0.05254,0.26147 -0.05769,0.46498 -0.110236,0.2035 -0.362025,0.2541 -0.145399,-0.12191 -0.275231,-0.16635 -0.127886,-0.0348 -0.292518,-0.002 -0.358315,0.072 -0.542041,0.41117 -0.183726,0.33918 -0.09032,0.80402 0.149839,0.74568 0.839773,1.0705 0.69188,0.33451 2.059297,0.0698 l 1.084629,-0.21795 q -0.405063,-0.21079 -0.682423,-0.58829 -0.26573,-0.36976 -0.359136,-0.8346 -0.144001,-0.71663 0.0356,-1.32701 0.179606,-0.61038 0.669335,-1.03119 0.489728,-0.42082 1.264464,-0.57649 0.794103,-0.15957 1.435525,0.0743 0.653052,0.24155 1.071966,0.77197 0.430543,0.53815 0.572598,1.24509 0.286056,1.42358 -0.689554,2.23421 -0.975611,0.81063 -2.951186,1.2076 -1.956207,0.39308 -3.117094,-0.16959 -1.158941,-0.55298 -1.427483,-1.8894 z m 3.381866,-0.51836 q 0.09341,0.46484 0.426925,0.82098 0.34515,0.36388 0.83538,0.49711 l 1.348048,-0.26081 q 1.09626,-0.21021 1.605311,-0.68528 0.520682,-0.46733 0.374735,-1.19365 -0.140109,-0.69726 -0.709895,-0.9757 -0.56784,-0.26875 -1.439418,-0.0936 l -0.949051,0.19071 q -0.842525,0.16929 -1.241203,0.59196 -0.387049,0.43041 -0.250832,1.1083 z"
         id="path8238" />
    </g>
    <path
       id="path7290"
       style="fill:#00e8d6;fill-opacity:0;stroke-width:0.335885"
       d="m 50.88246,93.325283 a 68.791664,68.791664 0 0 0 14.77718,96.157277 68.791664,68.791664 0 0 0 96.15728,-14.77719 68.791664,68.791664 0 0 0 -14.77719,-96.157287 68.791664,68.791664 0 0 0 -96.15727,14.7772 z" />
  </g>
</svg>
