<?xml version="1.0" encoding="UTF-8" standalone="no"?>
<!-- Created with Inkscape (http://www.inkscape.org/) -->

<svg
   width="146.6862mm"
   height="132.18013mm"
   viewBox="0 0 146.6862 132.18013"
   version="1.1"
   id="svg1"
   inkscape:version="1.4 (e7c3feb100, 2024-10-09)"
   sodipodi:docname="shr_logo2.svg"
   xmlns:inkscape="http://www.inkscape.org/namespaces/inkscape"
   xmlns:sodipodi="http://sodipodi.sourceforge.net/DTD/sodipodi-0.dtd"
   xmlns:xlink="http://www.w3.org/1999/xlink"
   xmlns="http://www.w3.org/2000/svg"
   xmlns:svg="http://www.w3.org/2000/svg">
  <sodipodi:namedview
     id="namedview1"
     pagecolor="#505050"
     bordercolor="#eeeeee"
     borderopacity="1"
     inkscape:showpageshadow="0"
     inkscape:pageopacity="0"
     inkscape:pagecheckerboard="0"
     inkscape:deskcolor="#505050"
     inkscape:document-units="mm"
     inkscape:zoom="1.0066813"
     inkscape:cx="175.82526"
     inkscape:cy="278.63833"
     inkscape:window-width="1918"
     inkscape:window-height="1011"
     inkscape:window-x="0"
     inkscape:window-y="0"
     inkscape:window-maximized="1"
     inkscape:current-layer="layer1" />
  <defs
     id="defs1">
    <rect
       x="-430.12622"
       y="512.57532"
       width="193.7058"
       height="108.27657"
       id="rect5" />
    <rect
       x="-458.57376"
       y="369.55042"
       width="184.25763"
       height="125.25378"
       id="rect4" />
  </defs>
  <g
     inkscape:label="Layer 1"
     inkscape:groupmode="layer"
     id="layer1"
     transform="translate(0,-49.068893)">
    <ellipse
       style="fill:#0074e8;fill-opacity:1;stroke-width:0.213986"
       id="path2"
       cx="73.343102"
       cy="115.15896"
       rx="73.343102"
       ry="66.090065" />
    <path
       style="fill:#ffffff;stroke-width:0.559964"
       d="m 59.904769,158.04796 c -0.332899,-0.28187 -0.213384,-1.02554 0.366898,-2.28293 0.308064,-0.66753 0.649144,-1.50975 0.757958,-1.87161 0.235902,-0.78447 0.231564,-5.36366 -0.0069,-7.61078 -0.439908,-4.14001 -0.548644,-4.98152 -0.757496,-5.86222 -0.124461,-0.52486 -0.334723,-1.52574 -0.467236,-2.22414 -0.132523,-0.69842 -0.275476,-1.31715 -0.317666,-1.37495 -0.04222,-0.0578 -0.192263,-0.59067 -0.333475,-1.18412 -0.141211,-0.59345 -0.361667,-1.27231 -0.489903,-1.5086 -0.128237,-0.23627 -0.23316,-0.51698 -0.23316,-0.6238 0,-0.10681 -0.181137,-0.63318 -0.402517,-1.16972 -0.221395,-0.53654 -0.402971,-1.05335 -0.403518,-1.1485 -5.47e-4,-0.0951 -0.09804,-0.33043 -0.216649,-0.52288 -0.118616,-0.19246 -0.2665,-0.52987 -0.328638,-0.74981 -0.212727,-0.75301 -1.725712,-4.08387 -2.627726,-5.78497 -0.706829,-1.33301 -2.388424,-4.13586 -2.925177,-4.87564 -2.068025,-2.85025 -4.094323,-5.26342 -5.247754,-6.24968 -1.327111,-1.13478 -4.252261,-3.05733 -5.449204,-3.58148 -0.370377,-0.16219 -0.999459,-0.45632 -1.397956,-0.65361 -1.438111,-0.71201 -2.567054,-1.13558 -3.026643,-1.13558 -1.10863,0 -1.855368,1.38209 -2.136092,3.95358 -0.08595,0.78731 -0.203408,1.55417 -0.261021,1.70414 -0.05761,0.14995 -0.0881,1.11778 -0.06775,2.15069 0.03418,1.73494 0.0073,1.93306 -0.353408,2.6001 -0.531444,0.9829 -0.991385,1.14312 -2.663021,0.9277 -1.896991,-0.24447 -1.966321,-0.23221 -2.774518,0.49046 -0.398316,0.35616 -0.850863,0.77737 -1.005659,0.93602 -0.481806,0.49379 -1.885183,4.01233 -2.359045,5.91459 -0.565912,2.27177 -0.887412,2.79084 -1.627146,2.62704 -0.738164,-0.16344 -2.05365,-2.10871 -2.51409,-3.71769 -0.500472,-1.74887 -0.233646,-6.48299 0.429736,-7.62452 0.06856,-0.11796 0.36077,-0.73595 0.649368,-1.37329 1.925322,-4.25193 5.461837,-9.35569 8.798796,-12.69806 5.220063,-5.228543 7.724275,-7.383661 11.895936,-10.237608 0.712161,-0.487208 1.545387,-0.995037 1.851611,-1.128499 0.306224,-0.133462 0.87182,-0.47675 1.256882,-0.76288 0.385061,-0.286119 1.037151,-0.685914 1.449087,-0.888426 0.411937,-0.202519 0.785203,-0.404199 0.829481,-0.448186 0.04428,-0.04396 0.261641,-0.168274 0.483029,-0.276208 0.221388,-0.10794 0.87176,-0.439124 1.445271,-0.735988 3.805548,-1.969763 9.72822,-4.307858 13.448121,-5.308931 3.589342,-0.965927 4.042348,-1.028669 8.13099,-1.126084 2.581168,-0.06153 5.849963,-0.0468 5.810546,0.06393 -0.05702,0.160288 -4.43088,0.260684 -6.034529,0.358083 -3.172885,0.192707 -6.481646,0.638541 -7.423977,1.000332 -0.177108,0.06801 -1.082788,0.355743 -2.012621,0.639441 -3.495093,1.066364 -7.479459,2.779904 -11.95047,5.139475 -2.775811,1.464945 -3.606204,1.935603 -4.967213,2.815369 -4.25218,2.748631 -7.350989,5.319879 -11.594197,9.62033 -1.88828,1.91375 -3.132498,3.3449 -5.215057,5.99854 -1.123001,1.43094 -1.662836,2.23862 -2.870322,4.29441 -1.265409,2.15441 -1.560258,2.74317 -2.40559,4.80356 l -0.686037,1.67213 v 3.13562 c 0,2.6487 0.04376,3.23614 0.281767,3.78316 0.154972,0.35617 0.396442,0.92365 0.536599,1.26106 0.165385,0.39815 0.349813,0.61349 0.52543,0.61349 0.27697,0 0.299244,-0.0552 0.990632,-2.45395 0.380477,-1.32008 0.805861,-2.32159 1.418675,-3.34011 0.270686,-0.44988 0.568809,-0.98925 0.662493,-1.19859 0.313768,-0.70112 1.445322,-1.97459 2.023276,-2.27703 0.454793,-0.23799 0.728147,-0.28426 1.333359,-0.22562 2.773302,0.26864 2.676026,0.2697 2.999098,-0.0326 0.343673,-0.32155 0.470053,-1.0811 0.728437,-4.37785 0.22861,-2.91687 0.297371,-3.32314 0.771896,-4.56058 0.452197,-1.1792 0.651687,-1.41925 1.473975,-1.77353 0.93325,-0.4021 2.19407,-0.0368 5.164498,1.49608 4.966092,2.56283 8.690375,6.11471 12.205142,11.64013 1.129937,1.77632 2.52869,4.18293 2.856669,4.91499 0.119381,0.26647 0.394573,0.88326 0.611538,1.37064 0.216965,0.48738 0.591367,1.31558 0.832004,1.84046 0.24064,0.52487 0.573129,1.32241 0.73888,1.77229 0.165743,0.4499 0.407217,1.09406 0.53661,1.43148 0.692174,1.80502 1.133809,3.22569 1.737572,5.58954 0.537696,2.10515 0.611369,2.46182 0.774423,3.74909 0.08549,0.67484 0.221071,1.56439 0.301308,1.9768 0.08024,0.4124 0.199752,2.39194 0.265589,4.39899 0.0658,2.00704 0.175012,3.67812 0.242629,3.7135 0.230247,0.12049 0.505328,-0.32464 0.732917,-1.186 0.124931,-0.47289 0.333005,-1.16652 0.462367,-1.54143 0.422409,-1.22421 0.894684,-3.13182 1.06559,-4.30414 0.09213,-0.63201 0.252938,-1.39449 0.357322,-1.69441 0.252051,-0.72419 0.245887,-11.34539 -0.0069,-12.13342 -0.286383,-0.89224 -0.601806,-6.81686 -0.577027,-10.83828 0.0245,-3.97584 0.188934,-5.30377 0.852547,-6.88469 0.471898,-1.12418 0.623072,-2.2272 0.509058,-3.71404 -0.09921,-1.29363 0.15397,-4.31262 0.44309,-5.28377 0.585133,-1.96544 1.650531,-4.375873 2.500675,-5.657722 0.893623,-1.347389 1.61884,-1.651418 2.465201,-1.033451 0.445863,0.32556 0.451504,0.349115 0.43265,1.806395 -0.01626,1.254458 -0.09419,1.671288 -0.51838,2.771658 -0.920873,2.38879 -1.301445,3.29914 -1.444967,3.45647 -0.07842,0.086 -0.417765,0.70843 -0.754075,1.38326 -0.336325,0.67484 -0.938255,1.79843 -1.337621,2.49687 -0.718124,1.2559 -0.72401,1.27768 -0.534074,1.97679 0.429414,1.58066 1.756464,3.83421 2.875379,4.88289 0.685353,0.64233 2.437571,1.62921 3.423449,1.92815 1.162354,0.35244 2.509914,0.50789 4.402944,0.50789 1.621362,0 1.828764,0.03 2.506332,0.36265 0.829117,0.40703 2.693713,1.50623 3.085002,1.81864 0.140875,0.11247 0.858518,0.63394 1.594755,1.15882 4.010166,2.85887 7.469859,5.87603 8.441636,7.36183 0.147117,0.22496 0.492687,0.71574 0.767919,1.09065 0.275233,0.37492 0.689389,0.96829 0.920336,1.31864 0.762509,1.1567 1.443039,1.8712 2.344249,2.46132 0.48936,0.32044 0.81224,0.60473 0.71749,0.63175 -0.26788,0.0764 -1.91318,-0.93967 -2.2974,-1.41876 -0.613908,-0.76548 -2.242434,-2.84198 -2.667579,-3.40135 -1.388351,-1.82671 -3.419155,-3.70686 -6.532379,-6.04778 -1.151231,-0.86564 -2.447636,-1.86831 -2.880931,-2.22818 -0.433286,-0.35985 -0.874894,-0.65429 -0.981351,-0.65429 -0.106457,0 -0.31047,-0.10736 -0.453365,-0.23857 -0.142878,-0.13122 -0.871489,-0.51248 -1.619115,-0.84724 l -1.35934,-0.60866 -1.352622,0.16558 c -1.744721,0.2136 -2.694172,0.20604 -4.020513,-0.032 -2.96282,-0.5317 -5.492886,-2.42565 -6.715937,-5.02737 -0.275837,-0.58678 -0.50153,-1.17813 -0.50153,-1.31412 0,-0.33216 -0.521716,-0.84674 -0.729759,-0.71975 -0.380627,0.23233 -0.746269,2.22474 -0.906812,4.94119 -0.176253,2.98226 -0.0094,6.71559 0.429598,9.6113 0.721407,4.75873 0.692321,17.08047 -0.04314,18.28516 -0.08589,0.14069 -0.248469,0.68524 -0.361281,1.21011 -0.11282,0.52486 -0.274888,1.10768 -0.360164,1.29514 -0.08527,0.18745 -0.286623,0.77026 -0.447458,1.29514 -0.326286,1.06485 -0.861231,2.31973 -1.50791,3.53731 -0.448005,0.84352 -0.733603,2.11045 -0.739204,3.27921 -0.0031,0.6461 -0.481776,1.9828 -0.842132,2.3517 -0.210901,0.21591 -0.649036,0.21922 -0.899894,0.006 z m 6.766714,-49.01764 c 0.136081,-0.13121 0.301716,-0.39194 0.368085,-0.57939 0.06641,-0.18746 0.355842,-0.7396 0.643288,-1.22699 0.619089,-1.04969 1.689818,-3.32224 2.495503,-5.29651 0.414868,-1.01664 0.790303,-2.695034 0.798254,-3.568718 0.0061,-0.724447 -0.344485,-1.223229 -0.861,-1.223229 -0.775676,0 -1.576626,1.169638 -2.567319,3.749097 -1.227459,3.19591 -1.726076,5.74819 -1.477392,7.56242 0.120001,0.87545 0.208482,0.9614 0.600581,0.58332 z m 40.702697,23.69337 c -0.12635,-0.19991 -0.0641,-0.65236 0.24855,-1.80637 0.22944,-0.84681 0.50755,-1.87632 0.61803,-2.28777 0.33824,-1.2597 -0.28991,-2.95868 -1.47496,-3.98938 -0.54453,-0.47361 -0.65584,-0.51124 -1.5122,-0.51124 -0.73164,0 -1.00861,0.0639 -1.32825,0.30675 -0.36444,0.27682 -0.41204,0.43609 -0.48801,1.63283 -0.0909,1.43218 -0.21223,2.014 -0.41994,2.014 -0.24879,0 -0.79085,-0.70941 -0.89244,-1.16796 -0.071,-0.32032 0.0249,-0.76884 0.31779,-1.48702 0.23068,-0.56559 0.41941,-1.20507 0.41941,-1.42107 0,-0.90688 -0.72324,-3.49283 -1.37653,-4.92176 -0.11998,-0.26243 -0.41214,-0.9066 -0.64925,-1.43147 -0.2371,-0.52488 -0.5581,-1.19972 -0.71331,-1.49964 -0.155239,-0.29993 -0.518569,-1.00543 -0.807429,-1.5678 -0.28885,-0.56237 -0.79627,-1.39056 -1.12761,-1.84046 -0.33134,-0.44989 -0.84618,-1.19364 -1.14409,-1.65278 -0.60147,-0.92694 -2.569208,-3.84474 -3.022694,-4.48208 -0.160066,-0.22496 -0.436817,-0.62372 -0.615019,-0.88616 -0.178211,-0.26243 -0.734693,-1.05996 -1.236659,-1.77229 -0.501959,-0.71233 -1.633015,-2.53296 -2.513443,-4.045834 -1.070102,-1.838782 -1.703474,-2.778284 -1.910517,-2.833923 -0.374801,-0.100724 -2.126203,0.123673 -2.583841,0.33106 -0.40561,0.183792 -0.588353,0.744598 -0.39463,1.211017 0.07994,0.192457 0.562059,0.618103 1.071372,0.945887 0.966632,0.622103 1.046181,0.847193 0.299377,0.847193 -0.757603,0 -1.775331,-0.500541 -1.875512,-0.922417 -0.04869,-0.204995 -0.158451,-0.561117 -0.243939,-0.791389 -0.258779,-0.697082 -0.183132,-1.076615 0.287352,-1.441712 0.903399,-0.701028 3.268335,-1.045264 3.795111,-0.552412 0.144406,0.135096 0.598859,0.855955 1.009899,1.601877 0.41104,0.745929 1.068445,1.804923 1.46089,2.353303 0.392437,0.54838 0.778891,1.14263 0.858777,1.32055 0.07994,0.17793 0.47884,0.80285 0.886539,1.38872 0.407699,0.58588 0.803615,1.15725 0.879806,1.26973 0.07623,0.11247 0.73685,1.0327 1.468159,2.04495 3.550572,4.91464 5.990981,8.98696 7.148601,11.92893 0.86576,2.20023 1.02524,2.68883 1.22665,3.75809 0.2162,1.14778 0.50557,1.55524 0.95868,1.34991 0.45729,-0.20722 1.45864,-0.14952 2.17294,0.1252 1.34322,0.51659 2.15326,1.7296 2.46382,3.68947 0.11946,0.75383 0.0736,1.11956 -0.32144,2.56524 -0.67036,2.45302 -0.59385,2.87923 0.3242,1.80614 1.39454,-1.63002 2.43524,-4.03367 2.43524,-5.62456 0,-0.89661 -0.43051,-2.46734 -1.01844,-3.71591 -0.67991,-1.44387 -4.08837,-7.74723 -4.71802,-8.72516 -1.64871,-2.56067 -3.59161,-5.86567 -4.68844,-7.97534 -2.725759,-5.24274 -2.959019,-5.77991 -3.048809,-7.021008 -0.0697,-0.963519 -0.0304,-1.18248 0.3375,-1.878438 0.50997,-0.964731 0.51271,-1.069361 0.0407,-1.553452 -0.4443,-0.455626 -1.7387,-2.107587 -3.085942,-3.938408 -2.048517,-2.78382 -2.537561,-3.411038 -2.916592,-3.740647 -0.215555,-0.187458 -0.554824,-0.553984 -0.753934,-0.814515 -0.450663,-0.589681 -2.149234,-1.76314 -2.689348,-1.857922 -0.221391,-0.03885 -0.528296,-0.128264 -0.682008,-0.198691 -0.319431,-0.146344 -3.437429,-0.53713 -4.28564,-0.53713 -0.310375,0 -0.811626,0.07572 -1.113878,0.168256 -0.467954,0.143282 -0.577234,0.136467 -0.73597,-0.04592 -0.250776,-0.288072 -0.709489,-0.476988 -1.422721,-0.585924 -0.708377,-0.108188 -1.581374,-0.754856 -1.581374,-1.17139 0,-0.379413 1.214484,-1.422107 2.534577,-2.176069 0.552762,-0.315695 1.047918,-0.632778 1.100352,-0.704631 0.0524,-0.07185 0.36098,-0.278822 0.685616,-0.459936 0.324645,-0.181112 0.988749,-0.576514 1.475799,-0.87867 0.487049,-0.302156 1.08861,-0.645517 1.336797,-0.763027 0.248169,-0.117509 1.051473,-0.605964 1.785095,-1.085457 1.815706,-1.186707 3.911098,-2.369597 4.370515,-2.467228 1.245249,-0.264632 0.865873,1.179949 -0.791166,3.012611 -1.887098,2.087103 -3.025734,3.128264 -5.524199,5.051265 -0.957317,0.73682 -1.798933,1.420717 -1.870246,1.519772 -0.182441,0.253376 0.241401,0.361506 1.096984,0.279846 0.390952,-0.03732 0.985339,-0.01764 1.320852,0.04367 2.174493,0.397573 2.690151,0.537275 3.078971,0.83419 0.236066,0.180263 0.640329,0.416846 0.898357,0.525743 0.258028,0.108895 0.812083,0.458719 1.231238,0.777394 0.419137,0.318675 0.838015,0.579403 0.930815,0.579403 0.154213,0 0.626734,-0.39403 2.080226,-1.734659 0.942874,-0.869661 2.292504,-3.018658 2.292504,-3.650329 0,-0.396844 0.70224,-1.765876 1.0621,-2.070576 0.5487,-0.464606 1.00123,-0.408957 1.28074,0.157504 0.17073,0.345987 0.23331,1.057636 0.23331,2.65361 0,2.662462 -0.37216,4.551607 -1.111,5.639606 -0.44676,0.657915 -1.14314,1.219983 -1.14314,0.922674 0,-0.07122 0.0645,-0.163212 0.14342,-0.204494 0.25983,-0.135978 0.95563,-1.383581 1.2288,-2.203322 0.35766,-1.073332 0.5457,-6.489644 0.23625,-6.805354 -0.39366,-0.401624 -0.88433,0.26511 -1.37497,1.868297 -0.13525,0.441938 -0.50807,1.276347 -0.82849,1.854233 -0.48269,0.870544 -0.86812,1.29253 -2.247934,2.461147 -0.915941,0.775747 -1.665335,1.439282 -1.665335,1.474514 0,0.144455 0.418982,0.731418 1.443996,2.022935 0.595087,0.749817 1.290013,1.670052 1.544233,2.04496 0.25425,0.374918 1.09877,1.503362 1.8767,2.50767 0.78216,1.009752 1.41444,1.971614 1.41444,2.151739 0,0.179145 -0.18114,0.628394 -0.40253,0.998314 -0.56507,0.944181 -0.54465,1.978405 0.0678,3.442594 0.90179,2.15547 2.795939,5.80596 4.123119,7.9463 0.50963,0.82189 1.61298,2.62929 2.45191,4.01645 0.83892,1.38716 1.65462,2.6764 1.81267,2.86495 0.80934,0.9655 3.31784,5.65435 4.3751,8.17783 0.54439,1.29935 0.77597,3.44557 0.4781,4.43073 -0.49888,1.64991 -1.7152,3.6676 -2.77334,4.60053 -0.78937,0.69596 -1.31717,0.82215 -1.59568,0.38148 z M 83.924746,82.854859 c 2.331951,-1.597727 5.394788,-4.268142 6.450007,-5.623634 1.407248,-1.807677 1.458068,-1.899036 1.18508,-2.130187 -0.191462,-0.16211 -0.305144,-0.13822 -0.780523,0.164031 -1.045931,0.665029 -2.752228,1.625057 -3.378434,1.900843 -0.344069,0.151534 -0.828002,0.435444 -1.075412,0.630913 -0.247409,0.195469 -0.630963,0.433647 -0.852354,0.529287 -0.221382,0.09564 -0.813628,0.440553 -1.316104,0.766476 -0.502468,0.325922 -0.955609,0.592586 -1.00699,0.592586 -0.09993,0 -1.980478,1.207073 -2.761133,1.772298 -0.675418,0.489016 -1.195153,1.087795 -1.195153,1.376896 0,0.451312 1.054249,0.767117 2.638748,0.790438 0.92347,0.01356 0.977864,-0.0065 2.092268,-0.769947 z m -1.592424,15.605892 c 0,0 -0.706594,-1.124282 -0.716383,-1.603184 -0.0035,-0.190345 0.120951,-0.558439 0.277408,-0.817982 0.277943,-0.461078 2.596695,-2.672824 3.000362,-3.119196 0.363449,-0.4019 1.074954,-0.772991 -0.105093,0.423797 -0.199006,0.201831 -0.615657,0.625373 -0.925601,0.941431 -0.309953,0.316059 -0.639441,0.641794 -0.732215,0.723866 -0.09277,0.08206 -0.400689,0.436343 -0.684287,0.787268 -0.646786,0.800356 -0.674212,1.426471 -0.09889,2.257692 0.462826,0.668696 3.091867,2.240097 3.091867,2.240097 z m 2.561387,-5.540362 c 0.428754,-0.717376 7.019394,-5.948987 7.247182,-5.75612 0.0461,0.039 -1.032576,0.831653 -1.289628,0.996323 -0.499679,0.320118 -3.397513,2.716674 -5.099122,4.171506 -0.570052,0.487384 -0.956342,0.752115 -0.858432,0.588291 z M 75.787566,86.16893 c -0.210777,-0.391712 0.01048,-1.29538 0.526971,-2.152679 0.179003,-0.297093 0.331441,-0.718294 0.338752,-0.935991 0.0098,-0.290004 0.04454,-0.449483 0.262554,-0.449483 0.400837,0 0.431594,0.140956 -0.201949,1.300577 -0.656409,1.20148 -0.797566,1.770328 -0.519288,2.092567 0.179527,0.207891 0.29885,0.218476 0.958064,0.08496 0.414143,-0.08388 1.095238,-0.221749 1.513557,-0.306377 0.418319,-0.08464 1.028154,-0.296915 1.355211,-0.471725 0.327041,-0.17481 1.693353,-0.888003 1.693353,-0.888003 l 0.509701,0.11004 -1.179145,0.639019 c -0.265674,0.194143 -0.981841,0.568286 -1.591476,0.831427 -0.971093,0.419143 -1.255858,0.478431 -2.297842,0.478431 -1.104769,0 -1.202133,-0.02369 -1.368463,-0.332766 z"
       id="path1"
       sodipodi:nodetypes="sssssssssssssssssssssssssssssssssssssssssssssssssssscssssssssssssscsssssssssssssssscsssssssssssssscsssssssssssssscscsssssssssssssssssscsssssssssssssssssssssssssssssssssssssssssssssssssssssssssssssssssssssssssssssssssssssssssssssssssssssssssssssssssssssssssscsssssssssssssssssssssssscsss" />
    <circle
       style="display:none;fill:#000000;stroke-width:0"
       id="path3"
       cx="-169.3709"
       cy="-0.93561327"
       r="68.197319"
       transform="rotate(-125.05301)" />
    <text
       xml:space="preserve"
       style="font-size:19.7556px;line-height:0px;font-family:'Noto Sans Telugu';-inkscape-font-specification:'Noto Sans Telugu';text-align:start;writing-mode:lr-tb;direction:ltr;text-anchor:start;display:inline;fill:#ffffff;stroke-width:0"
       id="text3"
       transform="matrix(0.83809291,-0.19106121,0.20691347,0.77388412,-35.598697,33.552574)"><textPath
         xlink:href="#path3"
         id="textPath3"
         style="font-style:italic;font-variant:normal;font-weight:bold;font-stretch:normal;font-size:19.7556px;font-family:C059;-inkscape-font-specification:'C059, Bold Italic';font-variant-ligatures:normal;font-variant-caps:normal;font-variant-numeric:normal;font-variant-east-asian:normal">Stora Höga</textPath></text>
    <ellipse
       style="display:none;fill:#000000;stroke-width:0"
       id="path4"
       cx="21.935278"
       cy="182.80547"
       rx="57.822006"
       ry="57.559181"
       transform="matrix(-0.79513414,0.60643359,0.60643359,0.79513414,0,0)" />
    <text
       xml:space="preserve"
       id="text4"
       style="font-style:italic;font-variant:normal;font-weight:bold;font-stretch:normal;font-size:19.7556px;line-height:0px;font-family:C059;-inkscape-font-specification:'C059, Bold Italic';font-variant-ligatures:normal;font-variant-caps:normal;font-variant-numeric:normal;font-variant-east-asian:normal;text-align:start;writing-mode:lr-tb;direction:ltr;text-anchor:start;white-space:pre;display:inline;fill:#ffffff;stroke-width:0"
       transform="matrix(0.86325716,0,0,0.79712046,-6.3550442,3.1632741)"><textPath
         xlink:href="#path4"
         id="textPath5">Ridklubb</textPath></text>
  </g>
</svg>
