<?xml version="1.0" encoding="UTF-8" standalone="no"?>
<!-- Created with Inkscape (http://www.inkscape.org/) -->

<svg
   width="152.48759mm"
   height="152.48759mm"
   viewBox="0 0 152.48759 152.48759"
   version="1.1"
   id="svg1"
   sodipodi:docname="shr_logo.svg"
   inkscape:version="1.4 (e7c3feb100, 2024-10-09)"
   xml:space="preserve"
   xmlns:inkscape="http://www.inkscape.org/namespaces/inkscape"
   xmlns:sodipodi="http://sodipodi.sourceforge.net/DTD/sodipodi-0.dtd"
   xmlns:xlink="http://www.w3.org/1999/xlink"
   xmlns="http://www.w3.org/2000/svg"
   xmlns:svg="http://www.w3.org/2000/svg"><sodipodi:namedview
     id="namedview1"
     pagecolor="#505050"
     bordercolor="#eeeeee"
     borderopacity="1"
     inkscape:showpageshadow="0"
     inkscape:pageopacity="0"
     inkscape:pagecheckerboard="0"
     inkscape:deskcolor="#505050"
     inkscape:document-units="mm"
     inkscape:zoom="1.2924809"
     inkscape:cx="229.01692"
     inkscape:cy="307.54807"
     inkscape:window-width="1918"
     inkscape:window-height="1011"
     inkscape:window-x="0"
     inkscape:window-y="0"
     inkscape:window-maximized="1"
     inkscape:current-layer="layer1" /><defs
     id="defs1"><rect
       x="-191.87904"
       y="89.749876"
       width="109.86623"
       height="88.97617"
       id="rect1" /><rect
       x="137.63295"
       y="232.03689"
       width="266.18934"
       height="205.43725"
       id="rect11" /></defs><g
     inkscape:label="Layer 1"
     inkscape:groupmode="layer"
     id="layer1"
     transform="matrix(0.86048757,0,0,1,-16.392206,-13.493809)"><ellipse
       style="display:inline;fill:#0074e8;fill-opacity:1;stroke:#000000;stroke-width:0;stroke-dasharray:none"
       id="circle1"
       cx="107.65524"
       cy="89.73761"
       rx="88.605339"
       ry="76.243797" /><path
       id="path3"
       style="display:inline;fill:#f4faff;fill-opacity:1;stroke-width:1.74168"
       d="m 120.00973,40.947371 c 0.21418,0.0052 0.40431,0.02796 0.55862,0.07183 1.63123,0.463766 1.57088,1.022584 -0.36845,3.422013 -2.04153,2.525902 -2.73596,3.82356 -2.62878,4.911328 0.0452,0.458362 -0.15781,0.993678 -0.45114,1.189592 -1.10858,0.740461 -0.54065,-3.871936 0.68627,-5.573304 1.32455,-1.836764 1.41862,-2.63649 0.29662,-2.525944 -2.01344,0.198376 -5.99722,3.952457 -7.63209,7.192326 -1.11578,2.211185 -1.89777,2.791354 -2.4505,1.816944 -0.61707,-1.087803 5.58756,-8.56665 7.24245,-8.7297 0.359,-0.03537 0.63855,-0.208897 0.62115,-0.386023 -0.0586,-0.59432 2.62661,-1.425652 4.12585,-1.389063 z m 17.72657,4.339787 c 1.67167,0.04757 2.98376,1.534604 2.60862,4.422986 -0.13973,1.075816 0.12594,1.426182 1.79214,2.360063 1.44671,0.810881 1.82581,1.237015 1.45469,1.635042 -0.37416,0.401264 -0.68954,0.412517 -1.24023,0.04496 -2.83591,-1.892806 -12.9739,-0.928382 -16.45946,1.565795 v 5.17e-4 c -1.76917,1.265969 -2.39999,0.626343 -0.84543,-0.857312 2.93985,-2.805742 -8.7069,-2.227588 -12.4504,0.61805 -1.32169,1.004681 -2.79283,1.366043 -2.85823,0.702283 -0.23433,-2.378276 12.81396,-5.479621 16.07551,-3.820955 2.70528,1.375778 6.17572,0.183459 7.15563,-2.458248 1.06415,-2.868774 3.09548,-4.260752 4.76716,-4.21318 z m -1.06092,1.120345 c -0.62955,0.03645 -1.14487,0.700779 -2.05362,2.242757 -1.10993,1.883333 -0.9608,2.351018 0.8108,2.540931 2.02767,0.217365 2.70117,0.02107 3.36155,-0.980819 0.94009,-1.426277 0.74859,-2.25253 -0.75241,-3.244247 -0.56942,-0.376215 -0.98859,-0.580489 -1.36632,-0.558622 z m -44.568341,0.436666 c 5.52212,-0.05096 12.599121,3.361352 12.879831,6.210474 0.14245,1.44583 -0.62574,1.307594 -1.73477,-0.312643 -2.48094,-3.624455 -16.606416,-6.066764 -18.280026,-3.16053 -0.14456,0.251023 -0.69352,0.49899 -1.22008,0.55087 -1.91763,0.188937 -0.817673,0.834715 1.749247,1.026811 4.9148,0.367802 9.615027,2.807339 9.841777,5.108732 0.11159,1.132585 -0.706232,1.245341 -1.226282,0.168982 -0.45195,-0.935373 -4.119698,-3.061543 -6.233728,-3.613733 -1.77266,-0.462987 -8.389549,0.158262 -10.879439,1.021643 -2.03511,0.705724 -2.419216,0.643953 -2.094446,-0.337447 0.23772,-0.718359 5.784121,-3.934662 6.990271,-4.053499 0.41414,-0.0408 0.857699,-0.255488 0.985469,-0.47749 0.39887,-0.692641 6.516796,-2.10721 9.222176,-2.13217 z m 45.309381,7.042464 c 1.69327,-0.0586 3.17938,0.08839 3.78581,0.512631 0.27951,0.195514 0.8628,0.320192 1.29605,0.277502 0.90915,-0.08958 4.73444,2.543927 4.81004,3.311426 0.0828,0.84077 -0.70778,0.667334 -2.08979,-0.45837 -3.01584,-2.456526 -10.68642,-3.172041 -14.0286,-1.308447 -0.51577,0.287596 -1.35955,0.758323 -1.87534,1.045931 -1.12694,0.628375 -2.41795,0.800953 -2.46445,0.329178 -0.0633,-0.642309 1.04905,-1.481205 2.10168,-1.584916 0.57875,-0.05702 1.20094,-0.260155 1.38286,-0.451652 0.86173,-0.907051 4.25961,-1.575622 7.08174,-1.673283 z m -50.382456,3.611149 c 2.522989,0.03502 4.495334,0.502241 4.582149,1.383378 0.101,1.025158 -0.429428,1.060755 -2.793628,0.187586 -3.05108,-1.126838 -8.169051,0.001 -13.820861,3.045809 -1.17053,0.63058 -2.359556,1.169119 -2.642216,1.196309 -1.25332,0.120572 -9.876077,9.20307 -10.990027,11.576038 -0.84935,1.809227 -0.798178,3.512237 0.06511,2.165759 0.78731,-1.22793 6.216569,-4.669153 7.578349,-4.803324 0.51831,-0.05107 1.061121,-0.298295 1.205611,-0.549321 0.40955,-0.711213 1.80557,-0.669328 3.24683,0.09715 1.10625,0.588315 1.215307,0.797507 0.690397,1.321883 -0.49259,0.492191 -0.68218,0.515674 -0.90227,0.112138 -0.33068,-0.606309 -4.161608,-0.329552 -4.100008,0.296106 0.0231,0.234503 -0.389147,0.469018 -0.915707,0.520898 -0.52657,0.05188 -1.07559,0.299329 -1.22008,0.550354 -0.14455,0.251021 -0.68353,0.498134 -1.19786,0.548804 -1.20597,0.118819 -7.409714,6.54384 -8.154024,8.444963 -0.73654,1.881378 -1.85783,2.09518 -1.44694,0.275952 1.68653,-7.466953 9.226524,-18.127699 15.088484,-21.333065 1.29959,-0.710624 2.463556,-1.409975 2.586406,-1.55391 0.25843,-0.302958 2.175569,-1.132515 5.254459,-2.273247 2.28919,-0.848153 5.362835,-1.245283 7.885824,-1.210262 z m 50.283756,0.19017 c 3.81629,0.03022 8.25295,4.463963 9.77976,9.77408 0.24363,0.847331 0.18472,1.381321 -0.15606,1.414901 -0.30097,0.02965 -0.60405,-0.52171 -0.67335,-1.225248 -0.0693,-0.703519 -0.34779,-1.257663 -0.61908,-1.230933 -0.27127,0.02673 -0.53036,-0.323592 -0.57516,-0.778764 -0.0448,-0.455172 -0.31491,-0.924176 -0.60048,-1.042314 -0.28556,-0.118216 -0.55276,-0.555403 -0.59376,-0.971516 -0.10864,-1.102654 -3.22642,-3.400409 -5.90713,-4.353223 -2.44665,-0.869621 -2.74966,-1.603573 -0.65474,-1.586983 z m -20.38274,1.324467 c 0.30088,0.0568 0.19302,0.57642 -0.51005,1.523938 -1.19535,1.610963 -3.94527,3.343172 -7.26208,4.574914 -3.43194,1.274477 -11.832724,1.650397 -12.891724,0.576709 -0.15217,-0.154265 -1.126622,-0.4542 -2.165242,-0.666626 -1.03863,-0.212407 -2.024638,-0.627252 -2.191598,-0.921391 -0.43947,-0.774716 0.357915,-0.737061 3.516065,0.165365 2.95842,0.845327 12.514799,0.364061 14.455969,-0.728121 0.45066,-0.253554 1.46035,-0.77933 2.24379,-1.168404 0.78342,-0.389043 2.07145,-1.335326 2.86235,-2.102714 0.93202,-0.9043 1.64164,-1.310468 1.94252,-1.25367 z m 3.89795,0.698665 c 0.95658,0.09801 1.23293,3.876257 0.42582,5.8229 -0.42395,1.022455 -0.8626,2.382355 -0.97462,3.022038 -0.21983,1.255424 -4.72265,6.45952 -6.40839,7.406266 -1.28407,0.721147 -3.21767,0.943481 -2.86391,0.329179 0.14457,-0.251033 0.60374,-0.490163 1.02061,-0.531233 3.52625,-0.347427 7.99369,-7.703426 8.20363,-13.50822 0.0516,-1.425797 0.32016,-2.56929 0.59686,-2.54093 z m 14.35158,1.899109 c 2.23489,0.251243 6.82857,3.29478 6.98769,4.909778 0.05,0.507741 0.3007,1.086546 0.55707,1.286226 1.32945,1.035636 2.93069,8.084742 1.86035,8.190198 -0.27711,0.0273 -0.80055,-0.399413 -1.16272,-0.948263 -0.72092,-1.092458 -1.5007,-0.916847 -1.37976,0.310576 0.042,0.426449 -0.25556,1.066804 -0.66145,1.423169 -0.89812,0.788553 3.4e-4,8.212026 1.08675,8.97878 0.35442,0.250159 0.67405,0.757606 0.71055,1.127579 0.0365,0.369963 1.04434,2.024163 2.23966,3.675745 3.26822,4.515614 4.57975,8.335935 3.74241,10.900109 -0.18351,0.56199 -0.54104,1.81685 -0.79479,2.78898 -0.88,3.37125 -5.76471,8.10235 -8.65993,8.3876 -0.49238,0.0485 -1.01358,0.29365 -1.15807,0.54467 -0.31156,0.54101 -1.62553,0.68223 -2.71043,0.29145 -0.42599,-0.15345 -1.34783,-0.41465 -2.04897,-0.58032 -0.70111,-0.16566 -1.9415,-0.46256 -2.75591,-0.65991 -1.03223,-0.25005 -1.62376,-0.20797 -1.95337,0.13901 -1.53418,1.6149 -6.23291,0.0862 -6.49159,-2.11202 -0.0918,-0.78036 -0.0372,-0.77957 1.00097,0.009 1.64182,1.24755 2.06574,0.955 1.8619,-1.28623 -0.30732,-3.38802 2.39219,-4.95184 2.79673,-1.62006 0.1332,1.09738 1.82993,3.63968 2.39211,3.58428 0.28075,-0.0277 1.46678,0.24261 2.63601,0.601 4.84487,1.48498 11.23421,-1.65562 14.01982,-6.89157 0.90411,-1.69942 -0.0929,-9.251092 -1.4702,-11.134723 -0.63315,-0.865894 -1.17269,-1.792526 -1.19889,-2.058789 -0.0262,-0.266291 -0.51226,-0.95234 -1.07952,-1.524971 -1.79322,-1.810191 -3.63859,-5.889393 -4.07055,-8.997384 -0.38311,-2.756402 -0.25099,-3.556086 1.05316,-6.372221 0.62002,-1.338791 0.17364,-3.188899 -0.93999,-3.895886 -0.92175,-0.585137 -1.63135,-2.206759 -0.99322,-2.269629 0.1233,-0.01215 0.85568,0.423467 1.6278,0.968417 1.86037,1.31302 2.63949,0.597301 1.54978,-1.424203 -0.93624,-1.736793 -4.93342,-4.968193 -6.0141,-4.861719 -1.21548,0.119757 -2.30141,-0.990641 -1.37305,-1.403532 0.20319,-0.09037 0.47448,-0.111339 0.79375,-0.07545 z m -1.65881,1.930631 c 0.1739,0.01179 0.41071,0.149487 0.70745,0.427364 0.90694,0.849268 2.04657,10.484607 1.29915,10.983826 -0.257,0.171673 -0.43238,0.732771 -0.39068,1.247469 0.042,0.514646 -0.18542,1.300753 -0.50539,1.746664 -0.64742,0.902263 -1.19071,1.095623 -1.25471,0.446484 -0.0231,-0.234504 0.15756,-0.446216 0.40153,-0.470256 0.24396,-0.02404 0.48508,-0.96782 0.53588,-2.097546 0.26276,-5.853838 0.17301,-7.282254 -0.58756,-9.356018 -0.68347,-1.863503 -0.72738,-2.963346 -0.20567,-2.927987 z m -5.6503,2.553333 c 0.18684,0.0165 0.43238,0.147532 0.74466,0.367936 1.61733,1.141474 0.20995,9.659746 -2.02572,12.260234 -0.78239,0.910046 -2.02355,1.233272 -2.09135,0.544669 -0.0231,-0.234503 0.1372,-0.443994 0.35657,-0.465604 1.44721,-0.142587 3.03862,-5.51055 2.68821,-9.067147 -0.26667,-2.706581 -0.23289,-3.689579 0.32763,-3.640088 z m -34.172592,4.656046 c 0.265661,0.002 0.499893,0.06456 0.688846,0.197921 0.73816,0.520987 0.212653,1.362699 -0.920357,1.474329 -1.54579,0.152301 -3.640565,2.630958 -3.801835,4.498433 -0.08089,0.936427 -0.324195,2.056257 -0.540535,2.488737 -0.21633,0.43247 -0.359194,1.134286 -0.317294,1.559595 0.04191,0.425291 -0.158844,1.021172 -0.446484,1.32395 -0.28808,0.302771 -0.419032,1.444512 -0.291972,2.537313 0.13384,1.151587 -0.07646,2.582455 -0.499711,3.40341 -0.40164,0.779028 -0.827285,1.945263 -0.946195,2.591573 -0.11891,0.646321 -0.467727,1.46231 -0.775147,1.813326 -0.3074,0.351032 -1.113425,1.834787 -1.791105,3.296956 -1.34671,2.905571 -5.841689,8.125784 -7.103959,8.250144 -0.43515,0.0429 -0.772409,0.26985 -0.749309,0.50436 0.02311,0.23451 -0.531126,0.4829 -1.231966,0.5519 -1.85748,0.18301 -1.366799,-0.73379 1.327051,-2.47891 3.09675,-2.00611 5.608617,-5.230071 7.763867,-9.964253 0.97946,-2.151475 1.943222,-3.992237 2.141472,-4.090707 0.406,-0.201636 0.263351,-2.680542 -0.151929,-2.639632 -0.147,0.01448 -0.706122,0.457007 -1.242302,0.983403 -0.94081,0.923671 -3.221521,1.51969 -3.286621,0.858862 -0.0175,-0.177596 0.916749,-0.943987 2.076359,-1.702738 1.97659,-1.293333 2.487757,-2.071593 3.705717,-5.644617 0.28243,-0.828536 0.438841,-1.705886 0.833541,-4.673617 0.29421,-2.212301 3.700235,-5.153711 5.559868,-5.139738 z m 27.705282,2.88923 c 2.15285,0.338394 3.88063,6.615577 2.09652,8.493538 -0.90396,0.951518 -0.86842,0.95422 -2.11099,-0.167431 -0.57779,-0.521552 -1.6514,-1.018152 -2.3859,-1.103292 -2.64742,-0.306978 -1.3873,-4.791935 1.42421,-5.068942 0.94586,-0.09319 1.70103,-0.361316 1.67793,-0.595829 -0.0231,-0.234507 -0.61537,-0.369807 -1.3162,-0.300757 -1.59799,0.157442 -1.44989,-0.871927 0.1788,-1.242301 0.14639,-0.03329 0.29211,-0.03755 0.43563,-0.01499 z m -47.179029,2.410705 c 1.32687,-0.116511 -1.083556,1.796579 -2.448946,1.944068 -4.91664,0.529707 -18.697706,14.396351 -18.301726,18.415413 0.03177,0.322481 -0.288908,1.255798 -0.712618,2.074292 -0.42372,0.818505 -0.952848,2.571629 -1.175638,3.895889 -0.22281,1.32427 -0.550748,2.61579 -0.728638,2.87011 -0.17791,0.25432 -0.338818,1.86877 -0.358118,3.58737 -0.04196,3.73507 0.673972,4.05409 2.569352,1.14567 0.65958,-1.01212 1.335268,-1.85347 1.501718,-1.87017 0.16652,-0.0167 0.900905,-0.5735 1.631425,-1.23713 0.73049,-0.66366 1.459229,-1.22869 1.619539,-1.25419 0.16025,-0.0261 1.27057,-0.31176 2.46755,-0.63459 4.77751,-1.2885 5.454122,0.84898 1.636592,5.16868 -2.91741,3.30115 -4.491805,6.22147 -4.316015,8.00571 0.06577,0.66752 -0.06829,1.33946 -0.298173,1.49294 -0.65914,0.44026 -0.80041,3.61054 -0.36742,8.24394 0.59235,6.33938 2.095673,9.49358 2.926953,6.14019 0.17638,-0.71152 0.651263,-2.14747 1.055233,-3.19102 0.40398,-1.04356 0.721583,-2.03185 0.705383,-2.19625 -0.06625,-0.67239 2.642358,-6.07447 3.742408,-7.46363 1.98167,-2.50242 2.002765,-0.88686 0.02945,2.25206 -1.01882,1.62062 -2.066383,3.74308 -2.328023,4.716 -0.26166,0.97292 -0.735733,2.45143 -1.053683,3.2861 -0.31793,0.83468 -0.647138,2.70758 -0.731738,4.16202 -0.08463,1.45446 -0.23493,3.37904 -0.33383,4.27674 h -5.16e-4 c -0.17505,1.58815 -0.973238,2.36502 -1.100708,1.07125 -0.03497,-0.35495 -0.292309,-0.95895 -0.572059,-1.34255 -0.88953,-1.21969 -1.684883,-2.67798 -2.503723,-4.59093 -0.43764,-1.02241 -1.061422,-2.34895 -1.385962,-2.94763 -0.86562,-1.5968 -0.84087,-10.34743 0.03204,-11.31972 0.22151,-0.24679 0.347903,-1.00806 0.280603,-1.69137 -0.06733,-0.68334 0.230892,-1.9816 0.662492,-2.8851 0.43158,-0.90351 1.059757,-2.34772 1.396297,-3.20962 0.33653,-0.8619 1.539985,-2.52231 2.674255,-3.6897 2.18701,-2.25087 2.580404,-3.71656 0.954464,-3.55637 -0.52655,0.0519 -1.075581,0.29984 -1.220081,0.55087 -0.14456,0.25102 -0.654634,0.49489 -1.133264,0.54209 -2.60976,0.25713 -7.743804,7.64432 -7.869804,11.32334 -0.0521,1.52137 -0.292763,2.18112 -0.813903,2.23242 -0.88712,0.0874 -1.994888,-11.02933 -1.183908,-11.883 0.25484,-0.26826 0.400945,-1.11826 0.325045,-1.88877 -0.14209,-1.44219 0.325243,-4.80632 0.913123,-6.57531 1.971,-5.930962 3.117458,-7.982943 7.064168,-12.643154 4.37432,-5.165153 6.690286,-7.285918 9.219076,-8.441346 0.91742,-0.419175 1.76692,-0.8969 1.88774,-1.061434 0.27347,-0.372686 4.436533,-1.718312 5.643583,-1.824178 z m 39.903509,2.304252 c 0.54413,-0.12555 1.33683,0.216454 1.39113,0.767395 0.0605,0.614233 -2.88477,1.161284 -3.58635,0.66611 -0.7225,-0.509934 -0.40423,-1.01499 0.53796,-0.853695 0.53378,0.0914 1.08829,-0.0386 1.23248,-0.288871 0.0895,-0.155413 0.2434,-0.249088 0.42478,-0.290939 z m -12.2561,3.787366 c 0.47527,-0.04683 0.70097,0.238823 0.63097,0.798918 -0.354,2.832713 0.89867,7.578778 2.3983,9.086267 0.56943,0.572397 1.04682,1.158461 1.06092,1.301729 0.0887,0.90062 4.37765,4.658371 6.68331,5.855974 1.51265,0.785672 3.21379,1.721926 3.78013,2.080496 0.56633,0.35858 1.3206,0.62359 1.67639,0.58859 0.35577,-0.035 0.66144,0.0868 0.67954,0.27079 0.0181,0.18393 0.73271,0.60873 1.5875,0.94412 1.58813,0.62315 2.99218,6.01615 1.60197,6.15312 -0.27128,0.0267 -0.5943,-0.98155 -0.7183,-2.24018 -0.2164,-2.19631 -0.30956,-2.32554 -2.30374,-3.21944 -1.14279,-0.51228 -3.32076,-1.58216 -4.84053,-2.37711 -4.10484,-2.147137 -5.76459,-1.711755 -6.67608,1.75079 -0.25362,0.96343 -0.80331,2.53042 -1.22163,3.48196 -0.41832,0.95153 -0.72436,2.09813 -0.68006,2.54817 0.0443,0.45002 -0.0812,1.1708 -0.27905,1.60145 -0.94674,2.06062 -1.12934,4.32314 -0.70022,8.67854 0.46197,4.68883 0.26903,5.67969 -0.93896,4.82709 -1.55702,-1.09893 -0.54654,-15.57163 1.21698,-17.43097 0.23534,-0.24814 0.37734,-0.96252 0.31574,-1.5875 -0.0616,-0.625 0.23112,-1.6335 0.65061,-2.24121 0.41949,-0.60772 0.99791,-1.56244 1.28519,-2.12183 0.28729,-0.55939 0.7371,-1.389379 0.99994,-1.844336 0.39494,-0.683635 0.0819,-1.231998 -1.80454,-3.15898 -1.25538,-1.282334 -2.31198,-2.628605 -2.34818,-2.992065 -0.0362,-0.36346 -0.26707,-0.825064 -0.51314,-1.025778 -1.80292,-1.470556 -3.08858,-9.576332 -1.54306,-9.728605 z m 24.38197,18.908404 c 0.2128,-0.021 0.4055,0.20238 0.4284,0.4961 0.0606,0.77864 -1.4441,2.70799 -1.87482,2.40398 -0.41665,-0.29406 0.85402,-2.84168 1.44642,-2.90008 z m 12.13363,2.39366 c 1.43876,0.28313 2.42559,2.2199 1.27796,3.76101 -0.96617,1.29743 -2.83888,1.78464 -3.68867,0.95963 -1.97518,-1.91753 -2.30085,-3.5402 -0.74155,-3.69383 0.3946,-0.0389 1.12586,-0.34597 1.62522,-0.68265 0.5177,-0.34905 1.04745,-0.43854 1.52704,-0.34416 z m -58.898214,1.55287 c 0.101791,-0.0441 0.2123,0.02 0.3545,0.12041 1.34194,0.94714 -0.364886,7.53179 -3.083016,11.8954 -0.66787,1.07213 -1.531046,1.98079 -1.918746,2.01899 -1.00411,0.0989 -0.959365,-0.0513 1.117245,-3.72897 1.02866,-1.82182 2.021307,-4.08568 2.206067,-5.0307 0.788955,-4.03533 1.018576,-5.14284 1.32395,-5.27513 z m 48.135564,5.05809 c -0.33128,-0.0611 -0.57249,0.193 -0.53589,0.56431 0.0366,0.37129 0.41798,0.64019 0.8475,0.59789 0.87105,-0.0858 0.62896,-0.98876 -0.31161,-1.1622 z"
       sodipodi:nodetypes="sssccssssscsssssssccssssssssssssssscsssssccsscsssssssssscsssscsccscscssscsccscssssssssscssssssscccsssscssssscccscscsssscssscssccccccccsssssscsssssccssscssscsssssssssssscssccsscccscsscscssscsssscssssssscsssssssccsssccssscssscccscsscccsscccscscscscssscsscsscscsssssssssssscssssssssscsscsssscssssccccssssss"
       sodipodi:insensitive="true" /><ellipse
       style="display:none;fill:#ffffff;stroke-width:0"
       id="path1"
       cx="-139.55925"
       cy="-15.801898"
       rx="60.998726"
       ry="56.84959"
       transform="matrix(-0.84431661,-0.53584463,0.65078372,-0.75926317,0,0)" /><text
       xml:space="preserve"
       id="text1"
       style="font-style:italic;font-weight:bold;font-size:21.297px;line-height:0px;font-family:C059;-inkscape-font-specification:'C059, Bold Italic';text-align:start;writing-mode:lr-tb;direction:ltr;text-anchor:start;white-space:pre;fill:#000000;stroke-width:0"
       transform="matrix(0.9991747,-0.03495234,0.04720489,0.9991747,-2.4909666,4.2206069)"><textPath
         xlink:href="#path1"
         id="textPath1"
         style="fill:#f4faff;fill-opacity:1">Stora Höga</textPath></text><ellipse
       style="display:none;fill:#ffffff;stroke-width:0"
       id="ellipse1"
       cx="15.745719"
       cy="148.35361"
       rx="58.876549"
       ry="58.933903"
       transform="matrix(-0.69458406,0.71941156,0.81350256,0.58156134,0,0)" /><text
       xml:space="preserve"
       style="font-style:italic;font-weight:bold;font-size:21.297px;line-height:0px;font-family:C059;-inkscape-font-specification:'C059, Bold Italic';text-align:start;writing-mode:lr-tb;direction:ltr;text-anchor:start;fill:#000000;stroke-width:0"
       id="text2"><textPath
         xlink:href="#ellipse1"
         id="textPath2"
         style="fill:#f4faff;fill-opacity:1">Ridklubb</textPath></text></g></svg>
